{
  "accessors": [
    {
      "bufferView": 2,
      "componentType": 5126,
      "count": 65532,
      "max": [
        6.4352293014526367,
        20.966545104980469,
        26.439033508300781
      ],
      "min": [
        -9.0742521286010742,
        6.3348579406738281,
        15.692896842956543
      ],
      "type": "VEC3"
    },
    {
      "bufferView": 2,
      "byteOffset": 786384,
      "componentType": 5126,
      "count": 65532,
      "max": [
        0.99998980760574341,
        0.99999982118606567,
        0.99999606609344482
      ],
      "min": [
        -0.99999547004699707,
        -0.99995064735412598,
        -0.99999034404754639
      ],
      "type": "VEC3"
    },
    {
      "bufferView": 3,
      "componentType": 5126,
      "count": 65532,
      "max": [
        0.9999815821647644,
        0.99998968839645386,
        0.99999773502349854,
        -1
      ],
      "min": [
        -0.99999940395355225,
        -0.9999997615814209,
        -0.99999541044235229,
        -1
      ],
      "type": "VEC4"
    },
    {
      "bufferView": 1,
      "componentType": 5126,
      "count": 65532,
      "max": [
        0.999409019947052,
        0.55151402950286865
      ],
      "min": [
        0.00024399999529123306,
        0.00038599999970756471
      ],
      "type": "VEC2"
    },
    {
      "bufferView": 0,
      "componentType": 5125,
      "count": 276888,
      "max": [
        65531
      ],
      "min": [
        0
      ],
      "type": "SCALAR"
    },
    {
      "bufferView": 2,
      "byteOffset": 1572768,
      "componentType": 5126,
      "count": 65532,
      "max": [
        6.2355999946594238,
        20.21934700012207,
        26.470209121704102
      ],
      "min": [
        -9.0730514526367188,
        5.7303328514099121,
        15.797176361083984
      ],
      "type": "VEC3"
    },
    {
      "bufferView": 2,
      "byteOffset": 2359152,
      "componentType": 5126,
      "count": 65532,
      "max": [
        0.99998980760574341,
        0.99999982118606567,
        0.99999320507049561
      ],
      "min": [
        -0.99999487400054932,
        -0.99998438358306885,
        -0.99996918439865112
      ],
      "type": "VEC3"
    },
    {
      "bufferView": 3,
      "byteOffset": 1048512,
      "componentType": 5126,
      "count": 65532,
      "max": [
        0.99998384714126587,
        0.99999874830245972,
        0.99999493360519409,
        -1
      ],
      "min": [
        -0.99999958276748657,
        -0.99999481439590454,
        -0.99999910593032837,
        -1
      ],
      "type": "VEC4"
    },
    {
      "bufferView": 1,
      "byteOffset": 524256,
      "componentType": 5126,
      "count": 65532,
      "max": [
        0.99956202507019043,
        0.55151402950286865
      ],
      "min": [
        0.00024399999529123306,
        0.00058499997248873115
      ],
      "type": "VEC2"
    },
    {
      "bufferView": 0,
      "byteOffset": 1107552,
      "componentType": 5125,
      "count": 256173,
      "max": [
        65531
      ],
      "min": [
        0
      ],
      "type": "SCALAR"
    },
    {
      "bufferView": 2,
      "byteOffset": 3145536,
      "componentType": 5126,
      "count": 65532,
      "max": [
        6.2511625289916992,
        20.933647155761719,
        26.362728118896484
      ],
      "min": [
        -8.9988594055175781,
        -0.16594624519348145,
        15.733138084411621
      ],
      "type": "VEC3"
    },
    {
      "bufferView": 2,
      "byteOffset": 3931920,
      "componentType": 5126,
      "count": 65532,
      "max": [
        0.99997305870056152,
        0.99999982118606567,
        0.99999350309371948
      ],
      "min": [
        -0.99998468160629272,
        -0.99999791383743286,
        -0.99998682737350464
      ],
      "type": "VEC3"
    },
    {
      "bufferView": 3,
      "byteOffset": 2097024,
      "componentType": 5126,
      "count": 65532,
      "max": [
        0.99997788667678833,
        0.99999845027923584,
        0.99999904632568359,
        1
      ],
      "min": [
        -0.9999963641166687,
        -0.99999099969863892,
        -0.99999713897705078,
        -1
      ],
      "type": "VEC4"
    },
    {
      "bufferView": 1,
      "byteOffset": 1048512,
      "componentType": 5126,
      "count": 65532,
      "max": [
        0.99957901239395142,
        0.55151402950286865
      ],
      "min": [
        0.00024399999529123306,
        0.00068599998485296965
      ],
      "type": "VEC2"
    },
    {
      "bufferView": 0,
      "byteOffset": 2132244,
      "componentType": 5125,
      "count": 247152,
      "max": [
        65531
      ],
      "min": [
        0
      ],
      "type": "SCALAR"
    },
    {
      "bufferView": 2,
      "byteOffset": 4718304,
      "componentType": 5126,
      "count": 65532,
      "max": [
        5.4615969657897949,
        12.157785415649414,
        26.151157379150391
      ],
      "min": [
        -8.9513158798217773,
        -0.21966360509395599,
        15.704543113708496
      ],
      "type": "VEC3"
    },
    {
      "bufferView": 2,
      "byteOffset": 5504688,
      "componentType": 5126,
      "count": 65532,
      "max": [
        0.99998342990875244,
        0.9999963641166687,
        0.99998682737350464
      ],
      "min": [
        -0.99999332427978516,
        -0.99999850988388062,
        -0.99999862909317017
      ],
      "type": "VEC3"
    },
    {
      "bufferView": 3,
      "byteOffset": 3145536,
      "componentType": 5126,
      "count": 65532,
      "max": [
        0.99998849630355835,
        0.99999219179153442,
        0.99999529123306274,
        -1
      ],
      "min": [
        -0.99999362230300903,
        -0.99999994039535522,
        -0.99999982118606567,
        -1
      ],
      "type": "VEC4"
    },
    {
      "bufferView": 1,
      "byteOffset": 1572768,
      "componentType": 5126,
      "count": 65532,
      "max": [
        0.99955201148986816,
        0.55151402950286865
      ],
      "min": [
        0.00024399999529123306,
        0.019997000694274902
      ],
      "type": "VEC2"
    },
    {
      "bufferView": 0,
      "byteOffset": 3120852,
      "componentType": 5125,
      "count": 257133,
      "max": [
        65531
      ],
      "min": [
        0
      ],
      "type": "SCALAR"
    },
    {
      "bufferView": 2,
      "byteOffset": 6291072,
      "componentType": 5126,
      "count": 65532,
      "max": [
        3.9832699298858643,
        12.119501113891602,
        26.96910285949707
      ],
      "min": [
        -8.9227447509765625,
        0.19818338751792908,
        15.728432655334473
      ],
      "type": "VEC3"
    },
    {
      "bufferView": 2,
      "byteOffset": 7077456,
      "componentType": 5126,
      "count": 65532,
      "max": [
        0.99997228384017944,
        0.99998772144317627,
        0.99999350309371948
      ],
      "min": [
        -0.9999997615814209,
        -0.99998617172241211,
        -0.99998754262924194
      ],
      "type": "VEC3"
    },
    {
      "bufferView": 3,
      "byteOffset": 4194048,
      "componentType": 5126,
      "count": 65532,
      "max": [
        0.99998921155929565,
        0.99999958276748657,
        0.99999880790710449,
        -1
      ],
      "min": [
        -0.99999725818634033,
        -0.99999415874481201,
        -0.99999827146530151,
        -1
      ],
      "type": "VEC4"
    },
    {
      "bufferView": 1,
      "byteOffset": 2097024,
      "componentType": 5126,
      "count": 65532,
      "max": [
        0.99962902069091797,
        0.55151402950286865
      ],
      "min": [
        0.00024399999529123306,
        0.018039999529719353
      ],
      "type": "VEC2"
    },
    {
      "bufferView": 0,
      "byteOffset": 4149384,
      "componentType": 5125,
      "count": 235590,
      "max": [
        65531
      ],
      "min": [
        0
      ],
      "type": "SCALAR"
    },
    {
      "bufferView": 2,
      "byteOffset": 7863840,
      "componentType": 5126,
      "count": 64511,
      "max": [
        5.924138069152832,
        12.174225807189941,
        26.944087982177734
      ],
      "min": [
        -8.8068866729736328,
        -0.21966360509395599,
        16.028860092163086
      ],
      "type": "VEC3"
    },
    {
      "bufferView": 2,
      "byteOffset": 8637972,
      "componentType": 5126,
      "count": 64511,
      "max": [
        0.99999922513961792,
        0.99999868869781494,
        0.99999856948852539
      ],
      "min": [
        -0.9999997615814209,
        -0.99999696016311646,
        -0.99999862909317017
      ],
      "type": "VEC3"
    },
    {
      "bufferView": 3,
      "byteOffset": 5242560,
      "componentType": 5126,
      "count": 64511,
      "max": [
        0.99998688697814941,
        0.99999654293060303,
        0.99999254941940308,
        1
      ],
      "min": [
        -0.99999409914016724,
        -0.99999958276748657,
        -0.99999678134918213,
        -1
      ],
      "type": "VEC4"
    },
    {
      "bufferView": 1,
      "byteOffset": 2621280,
      "componentType": 5126,
      "count": 64511,
      "max": [
        0.99962002038955688,
        0.55151402950286865
      ],
      "min": [
        0.00024399999529123306,
        0.020899999886751175
      ],
      "type": "VEC2"
    },
    {
      "bufferView": 0,
      "byteOffset": 5091744,
      "componentType": 5125,
      "count": 227043,
      "max": [
        64510
      ],
      "min": [
        0
      ],
      "type": "SCALAR"
    }
  ],
  "asset": {
    "generator": "Sketchfab (OSG glTF plugin)",
    "version": "2.0"
  },
  "bufferViews": [
    {
      "buffer": 0,
      "byteLength": 5999916,
      "byteOffset": 0,
      "name": "floatBufferViews",
      "target": 34963
    },
    {
      "buffer": 0,
      "byteLength": 3137368,
      "byteOffset": 5999916,
      "byteStride": 8,
      "name": "floatBufferViews",
      "target": 34962
    },
    {
      "buffer": 0,
      "byteLength": 9412104,
      "byteOffset": 9137284,
      "byteStride": 12,
      "name": "floatBufferViews",
      "target": 34962
    },
    {
      "buffer": 0,
      "byteLength": 6274736,
      "byteOffset": 18549388,
      "byteStride": 16,
      "name": "floatBufferViews",
      "target": 34962
    }
  ],
  "buffers": [
    {
      "byteLength": 24824124,
      "uri": "scene.bin"
    }
  ],
  "extensionsRequired": [
    "KHR_materials_pbrSpecularGlossiness"
  ],
  "extensionsUsed": [
    "KHR_materials_pbrSpecularGlossiness"
  ],
  "images": [
    {
      "uri": "textures/model_Material_u1_v1_diffuse.jpeg"
    }
  ],
  "materials": [
    {
      "doubleSided": true,
      "emissiveFactor": [
        0,
        0,
        0
      ],
      "extensions": {
        "KHR_materials_pbrSpecularGlossiness": {
          "diffuseFactor": [
            1,
            1,
            1,
            1
          ],
          "diffuseTexture": {
            "index": 0,
            "texCoord": 0
          },
          "glossinessFactor": 0,
          "specularFactor": [
            0,
            0,
            0
          ]
        }
      },
      "name": "model_Material_u1_v1",
      "occlusionFactor": 1
    }
  ],
  "meshes": [
    {
      "primitives": [
        {
          "attributes": {
            "NORMAL": 1,
            "POSITION": 0,
            "TANGENT": 2,
            "TEXCOORD_0": 3
          },
          "indices": 4,
          "material": 0,
          "mode": 4
        }
      ]
    },
    {
      "primitives": [
        {
          "attributes": {
            "NORMAL": 6,
            "POSITION": 5,
            "TANGENT": 7,
            "TEXCOORD_0": 8
          },
          "indices": 9,
          "material": 0,
          "mode": 4
        }
      ]
    },
    {
      "primitives": [
        {
          "attributes": {
            "NORMAL": 11,
            "POSITION": 10,
            "TANGENT": 12,
            "TEXCOORD_0": 13
          },
          "indices": 14,
          "material": 0,
          "mode": 4
        }
      ]
    },
    {
      "primitives": [
        {
          "attributes": {
            "NORMAL": 16,
            "POSITION": 15,
            "TANGENT": 17,
            "TEXCOORD_0": 18
          },
          "indices": 19,
          "material": 0,
          "mode": 4
        }
      ]
    },
    {
      "primitives": [
        {
          "attributes": {
            "NORMAL": 21,
            "POSITION": 20,
            "TANGENT": 22,
            "TEXCOORD_0": 23
          },
          "indices": 24,
          "material": 0,
          "mode": 4
        }
      ]
    },
    {
      "primitives": [
        {
          "attributes": {
            "NORMAL": 26,
            "POSITION": 25,
            "TANGENT": 27,
            "TEXCOORD_0": 28
          },
          "indices": 29,
          "material": 0,
          "mode": 4
        }
      ]
    }
  ],
  "nodes": [
    {
      "children": [
        1
      ],
      "name": "RootNode (gltf orientation matrix)",
      "rotation": [
        -0.70710678118654746,
        -0,
        -0,
        0.70710678118654757
      ]
    },
    {
      "children": [
        2
      ],
      "name": "RootNode (model correction matrix)"
    },
    {
      "children": [
        3
      ],
      "name": "model.obj.cleaner.materialmerger.gles"
    },
    {
      "children": [
        4,
        5,
        6,
        7,
        8,
        9
      ],
      "name": "Geode"
    },
    {
      "mesh": 0,
      "name": ""
    },
    {
      "mesh": 1,
      "name": ""
    },
    {
      "mesh": 2,
      "name": ""
    },
    {
      "mesh": 3,
      "name": ""
    },
    {
      "mesh": 4,
      "name": ""
    },
    {
      "mesh": 5,
      "name": ""
    }
  ],
  "samplers": [
    {
      "magFilter": 9729,
      "minFilter": 9987,
      "wrapS": 10497,
      "wrapT": 10497
    }
  ],
  "scene": 0,
  "scenes": [
    {
      "name": "OSG_Scene",
      "nodes": [
        0
      ]
    }
  ],
  "textures": [
    {
      "sampler": 0,
      "source": 0
    }
  ]
}

