{
  "accessors": [
    {
      "bufferView": 1,
      "componentType": 5126,
      "count": 1378,
      "max": [
        0.13831329345703125,
        0.72198194265365601,
        0.88983833789825439
      ],
      "min": [
        -0.096905447542667389,
        0.14349077641963959,
        0.11584527790546417
      ],
      "type": "VEC3"
    },
    {
      "bufferView": 1,
      "byteOffset": 16536,
      "componentType": 5126,
      "count": 1378,
      "max": [
        0.99994909763336182,
        0.99976950883865356,
        0.99960589408874512
      ],
      "min": [
        -0.99963754415512085,
        -0.99963474273681641,
        -0.99833810329437256
      ],
      "type": "VEC3"
    },
    {
      "bufferView": 2,
      "componentType": 5126,
      "count": 1378,
      "max": [
        0.89414846897125244,
        0.99872833490371704,
        0.9991220235824585,
        1
      ],
      "min": [
        -0.99998503923416138,
        -0.99226677417755127,
        -0.99083489179611206,
        -1
      ],
      "type": "VEC4"
    },
    {
      "bufferView": 0,
      "componentType": 5125,
      "count": 8256,
      "max": [
        1377
      ],
      "min": [
        0
      ],
      "type": "SCALAR"
    },
    {
      "bufferView": 1,
      "byteOffset": 33072,
      "componentType": 5126,
      "count": 1284,
      "max": [
        0.27402916550636292,
        -0.17399246990680695,
        1.3603074550628662
      ],
      "min": [
        -0.2740291953086853,
        -0.59194421768188477,
        1.1205142736434937
      ],
      "type": "VEC3"
    },
    {
      "bufferView": 1,
      "byteOffset": 48480,
      "componentType": 5126,
      "count": 1284,
      "max": [
        0.99965953826904297,
        0.99231487512588501,
        0.99940192699432373
      ],
      "min": [
        -0.99965953826904297,
        -0.97374975681304932,
        -0.99964761734008789
      ],
      "type": "VEC3"
    },
    {
      "bufferView": 2,
      "byteOffset": 22048,
      "componentType": 5126,
      "count": 1284,
      "max": [
        0.9986836314201355,
        0.99764895439147949,
        0.96461230516433716,
        1
      ],
      "min": [
        -0.9986836314201355,
        -0.70122528076171875,
        -0.99385255575180054,
        -1
      ],
      "type": "VEC4"
    },
    {
      "bufferView": 0,
      "byteOffset": 33024,
      "componentType": 5125,
      "count": 7680,
      "max": [
        1283
      ],
      "min": [
        0
      ],
      "type": "SCALAR"
    },
    {
      "bufferView": 1,
      "byteOffset": 63888,
      "componentType": 5126,
      "count": 1858,
      "max": [
        0.21533186733722687,
        0.093923181295394897,
        1.4630094766616821
      ],
      "min": [
        -0.13677215576171875,
        -0.27497580647468567,
        0.6731255054473877
      ],
      "type": "VEC3"
    },
    {
      "bufferView": 1,
      "byteOffset": 86184,
      "componentType": 5126,
      "count": 1858,
      "max": [
        0.99969971179962158,
        0.99798637628555298,
        0.99968129396438599
      ],
      "min": [
        -0.99915838241577148,
        -0.99896454811096191,
        -0.97970056533813477
      ],
      "type": "VEC3"
    },
    {
      "bufferView": 2,
      "byteOffset": 42592,
      "componentType": 5126,
      "count": 1858,
      "max": [
        0.96795684099197388,
        0.99963748455047607,
        0.98211848735809326,
        1
      ],
      "min": [
        -0.99949765205383301,
        -0.9986119270324707,
        -0.99322009086608887,
        -1
      ],
      "type": "VEC4"
    },
    {
      "bufferView": 0,
      "byteOffset": 63744,
      "componentType": 5125,
      "count": 11136,
      "max": [
        1857
      ],
      "min": [
        0
      ],
      "type": "SCALAR"
    },
    {
      "bufferView": 1,
      "byteOffset": 108480,
      "componentType": 5126,
      "count": 294,
      "max": [
        0.05378253385424614,
        -0.44815868139266968,
        1.4184154272079468
      ],
      "min": [
        -0.053783927112817764,
        -0.63336771726608276,
        1.1941002607345581
      ],
      "type": "VEC3"
    },
    {
      "bufferView": 1,
      "byteOffset": 112008,
      "componentType": 5126,
      "count": 294,
      "max": [
        0.99962973594665527,
        0.9994051456451416,
        0.97057425975799561
      ],
      "min": [
        -0.99962401390075684,
        -0.99997448921203613,
        -0.95775306224822998
      ],
      "type": "VEC3"
    },
    {
      "bufferView": 2,
      "byteOffset": 72320,
      "componentType": 5126,
      "count": 294,
      "max": [
        1,
        0.86234277486801147,
        0.92331600189208984,
        -1
      ],
      "min": [
        -0.99999988079071045,
        -0.93294179439544678,
        -0.87177884578704834,
        -1
      ],
      "type": "VEC4"
    },
    {
      "bufferView": 0,
      "byteOffset": 108288,
      "componentType": 5125,
      "count": 1488,
      "max": [
        293
      ],
      "min": [
        0
      ],
      "type": "SCALAR"
    },
    {
      "bufferView": 1,
      "byteOffset": 115536,
      "componentType": 5126,
      "count": 1870,
      "max": [
        0.24083517491817474,
        -0.33771476149559021,
        1.1596215963363647
      ],
      "min": [
        -0.24083009362220764,
        -0.58926355838775635,
        0.81336390972137451
      ],
      "type": "VEC3"
    },
    {
      "bufferView": 1,
      "byteOffset": 137976,
      "componentType": 5126,
      "count": 1870,
      "max": [
        0.99919110536575317,
        0.99997931718826294,
        0.99998509883880615
      ],
      "min": [
        -0.99898010492324829,
        -0.99691629409790039,
        -0.9999922513961792
      ],
      "type": "VEC3"
    },
    {
      "bufferView": 2,
      "byteOffset": 77024,
      "componentType": 5126,
      "count": 1870,
      "max": [
        0.99999994039535522,
        0.99946856498718262,
        0.99896550178527832,
        1
      ],
      "min": [
        -0.99999850988388062,
        -0.99849182367324829,
        -0.99539357423782349,
        -1
      ],
      "type": "VEC4"
    },
    {
      "bufferView": 0,
      "byteOffset": 114240,
      "componentType": 5125,
      "count": 9912,
      "max": [
        1869
      ],
      "min": [
        0
      ],
      "type": "SCALAR"
    },
    {
      "bufferView": 1,
      "byteOffset": 160416,
      "componentType": 5126,
      "count": 5348,
      "max": [
        0.26410916447639465,
        0.33908888697624207,
        1.362176775932312
      ],
      "min": [
        -0.26412695646286011,
        -0.63307589292526245,
        -0.00014986367023084313
      ],
      "type": "VEC3"
    },
    {
      "bufferView": 1,
      "byteOffset": 224592,
      "componentType": 5126,
      "count": 5348,
      "max": [
        0.99998903274536133,
        0.99999880790710449,
        0.99890214204788208
      ],
      "min": [
        -0.99998897314071655,
        -0.9996904730796814,
        -0.99999678134918213
      ],
      "type": "VEC3"
    },
    {
      "bufferView": 2,
      "byteOffset": 106944,
      "componentType": 5126,
      "count": 5348,
      "max": [
        1,
        0.99933111667633057,
        0.99834859371185303,
        1
      ],
      "min": [
        -1,
        -0.99933326244354248,
        -0.99811083078384399,
        -1
      ],
      "type": "VEC4"
    },
    {
      "bufferView": 0,
      "byteOffset": 153888,
      "componentType": 5125,
      "count": 29958,
      "max": [
        5347
      ],
      "min": [
        0
      ],
      "type": "SCALAR"
    },
    {
      "bufferView": 1,
      "byteOffset": 288768,
      "componentType": 5126,
      "count": 946,
      "max": [
        -0.044767498970031738,
        -0.35307413339614868,
        1.1513690948486328
      ],
      "min": [
        -0.2008708119392395,
        -0.51853471994400024,
        0.87808805704116821
      ],
      "type": "VEC3"
    },
    {
      "bufferView": 1,
      "byteOffset": 300120,
      "componentType": 5126,
      "count": 946,
      "max": [
        0.98022246360778809,
        0.97635728120803833,
        0.99254459142684937
      ],
      "min": [
        -0.99985259771347046,
        -0.99913674592971802,
        -0.99907898902893066
      ],
      "type": "VEC3"
    },
    {
      "bufferView": 2,
      "byteOffset": 192512,
      "componentType": 5126,
      "count": 946,
      "max": [
        0.9993557333946228,
        0.97785472869873047,
        0.64300793409347534,
        1
      ],
      "min": [
        -0.96788579225540161,
        -0.99934923648834229,
        -0.98232972621917725,
        -1
      ],
      "type": "VEC4"
    },
    {
      "bufferView": 0,
      "byteOffset": 273720,
      "componentType": 5125,
      "count": 5280,
      "max": [
        945
      ],
      "min": [
        0
      ],
      "type": "SCALAR"
    },
    {
      "bufferView": 1,
      "byteOffset": 311472,
      "componentType": 5126,
      "count": 946,
      "max": [
        0.20085558295249939,
        -0.35307410359382629,
        1.1513690948486328
      ],
      "min": [
        0.044752262532711029,
        -0.51853471994400024,
        0.87808805704116821
      ],
      "type": "VEC3"
    },
    {
      "bufferView": 1,
      "byteOffset": 322824,
      "componentType": 5126,
      "count": 946,
      "max": [
        0.99984973669052124,
        0.97635740041732788,
        0.99254798889160156
      ],
      "min": [
        -0.98021489381790161,
        -0.99913591146469116,
        -0.99908065795898438
      ],
      "type": "VEC3"
    },
    {
      "bufferView": 2,
      "byteOffset": 207648,
      "componentType": 5126,
      "count": 946,
      "max": [
        0.99935579299926758,
        0.99934804439544678,
        0.98232913017272949,
        1
      ],
      "min": [
        -0.96791219711303711,
        -0.97779041528701782,
        -0.64373964071273804,
        -1
      ],
      "type": "VEC4"
    },
    {
      "bufferView": 0,
      "byteOffset": 294840,
      "componentType": 5125,
      "count": 5280,
      "max": [
        945
      ],
      "min": [
        0
      ],
      "type": "SCALAR"
    }
  ],
  "asset": {
    "generator": "Sketchfab (OSG glTF plugin)",
    "version": "2.0"
  },
  "bufferViews": [
    {
      "buffer": 0,
      "byteLength": 315960,
      "byteOffset": 0,
      "name": "floatBufferViews",
      "target": 34963
    },
    {
      "buffer": 0,
      "byteLength": 334176,
      "byteOffset": 315960,
      "byteStride": 12,
      "name": "floatBufferViews",
      "target": 34962
    },
    {
      "buffer": 0,
      "byteLength": 222784,
      "byteOffset": 650136,
      "byteStride": 16,
      "name": "floatBufferViews",
      "target": 34962
    }
  ],
  "buffers": [
    {
      "byteLength": 872920,
      "uri": "scene.bin"
    }
  ],
  "images": [
    {
      "uri": "textures/material_0_baseColor.png"
    },
    {
      "uri": "textures/material_2_baseColor.png"
    },
    {
      "uri": "textures/material_4_baseColor.png"
    },
    {
      "uri": "textures/material_1_baseColor.png"
    },
    {
      "uri": "textures/material_6_baseColor.png"
    },
    {
      "uri": "textures/material_5_baseColor.png"
    },
    {
      "uri": "textures/material_3_baseColor.png"
    }
  ],
  "materials": [
    {
      "doubleSided": true,
      "emissiveFactor": [
        0,
        0,
        0
      ],
      "name": "material_7",
      "pbrMetallicRoughness": {
        "baseColorFactor": [
          1,
          1,
          1,
          1
        ],
        "metallicFactor": 0,
        "roughnessFactor": 0.59999999999999998
      }
    },
    {
      "doubleSided": true,
      "emissiveFactor": [
        0,
        0,
        0
      ],
      "name": "material_0",
      "pbrMetallicRoughness": {
        "baseColorFactor": [
          1,
          1,
          1,
          1
        ],
        "baseColorTexture": {
          "index": 0,
          "texCoord": 0
        },
        "metallicFactor": 0,
        "roughnessFactor": 0.59999999999999998
      }
    },
    {
      "doubleSided": true,
      "emissiveFactor": [
        0,
        0,
        0
      ],
      "name": "material_1",
      "pbrMetallicRoughness": {
        "baseColorFactor": [
          1,
          1,
          1,
          1
        ],
        "baseColorTexture": {
          "index": 3,
          "texCoord": 0
        },
        "metallicFactor": 0,
        "roughnessFactor": 0
      }
    },
    {
      "doubleSided": true,
      "emissiveFactor": [
        0,
        0,
        0
      ],
      "name": "material_2",
      "pbrMetallicRoughness": {
        "baseColorFactor": [
          1,
          1,
          1,
          1
        ],
        "baseColorTexture": {
          "index": 1,
          "texCoord": 0
        },
        "metallicFactor": 0,
        "roughnessFactor": 0
      }
    },
    {
      "doubleSided": true,
      "emissiveFactor": [
        0,
        0,
        0
      ],
      "name": "material_3",
      "pbrMetallicRoughness": {
        "baseColorFactor": [
          1,
          1,
          1,
          1
        ],
        "baseColorTexture": {
          "index": 6,
          "texCoord": 0
        },
        "metallicFactor": 0,
        "roughnessFactor": 0.59999999999999998
      }
    },
    {
      "doubleSided": true,
      "emissiveFactor": [
        0,
        0,
        0
      ],
      "name": "material_4",
      "pbrMetallicRoughness": {
        "baseColorFactor": [
          1,
          1,
          1,
          1
        ],
        "baseColorTexture": {
          "index": 2,
          "texCoord": 0
        },
        "metallicFactor": 0,
        "roughnessFactor": 0.59999999999999998
      }
    },
    {
      "doubleSided": true,
      "emissiveFactor": [
        0,
        0,
        0
      ],
      "name": "material_5",
      "pbrMetallicRoughness": {
        "baseColorFactor": [
          1,
          1,
          1,
          1
        ],
        "baseColorTexture": {
          "index": 5,
          "texCoord": 0
        },
        "metallicFactor": 0,
        "roughnessFactor": 0.59999999999999998
      }
    },
    {
      "doubleSided": true,
      "emissiveFactor": [
        0,
        0,
        0
      ],
      "name": "material_6",
      "pbrMetallicRoughness": {
        "baseColorFactor": [
          1,
          1,
          1,
          1
        ],
        "baseColorTexture": {
          "index": 4,
          "texCoord": 0
        },
        "metallicFactor": 0,
        "roughnessFactor": 0.59999999999999998
      }
    }
  ],
  "meshes": [
    {
      "primitives": [
        {
          "attributes": {
            "NORMAL": 1,
            "POSITION": 0,
            "TANGENT": 2
          },
          "indices": 3,
          "material": 0,
          "mode": 4
        }
      ]
    },
    {
      "primitives": [
        {
          "attributes": {
            "NORMAL": 5,
            "POSITION": 4,
            "TANGENT": 6
          },
          "indices": 7,
          "material": 0,
          "mode": 4
        }
      ]
    },
    {
      "primitives": [
        {
          "attributes": {
            "NORMAL": 9,
            "POSITION": 8,
            "TANGENT": 10
          },
          "indices": 11,
          "material": 0,
          "mode": 4
        }
      ]
    },
    {
      "primitives": [
        {
          "attributes": {
            "NORMAL": 13,
            "POSITION": 12,
            "TANGENT": 14
          },
          "indices": 15,
          "material": 0,
          "mode": 4
        }
      ]
    },
    {
      "primitives": [
        {
          "attributes": {
            "NORMAL": 17,
            "POSITION": 16,
            "TANGENT": 18
          },
          "indices": 19,
          "material": 0,
          "mode": 4
        }
      ]
    },
    {
      "primitives": [
        {
          "attributes": {
            "NORMAL": 21,
            "POSITION": 20,
            "TANGENT": 22
          },
          "indices": 23,
          "material": 0,
          "mode": 4
        }
      ]
    },
    {
      "primitives": [
        {
          "attributes": {
            "NORMAL": 25,
            "POSITION": 24,
            "TANGENT": 26
          },
          "indices": 27,
          "material": 0,
          "mode": 4
        }
      ]
    },
    {
      "primitives": [
        {
          "attributes": {
            "NORMAL": 29,
            "POSITION": 28,
            "TANGENT": 30
          },
          "indices": 31,
          "material": 0,
          "mode": 4
        }
      ]
    }
  ],
  "nodes": [
    {
      "children": [
        1
      ],
      "name": "RootNode (gltf orientation matrix)",
      "rotation": [
        -0.70710678118654746,
        -0,
        -0,
        0.70710678118654757
      ]
    },
    {
      "children": [
        2
      ],
      "name": "RootNode (model correction matrix)"
    },
    {
      "children": [
        4,
        5,
        11,
        12
      ],
      "name": "vn_starlightglimmer.mdl.cleaner.materialmerger.gles"
    },
    {
      "mesh": 0,
      "name": ""
    },
    {
      "children": [
        3
      ],
      "name": "Geode"
    },
    {
      "children": [
        7,
        9
      ],
      "name": ""
    },
    {
      "mesh": 1,
      "name": ""
    },
    {
      "children": [
        6
      ],
      "name": "Geode"
    },
    {
      "mesh": 2,
      "name": ""
    },
    {
      "children": [
        8
      ],
      "name": "Geode"
    },
    {
      "mesh": 3,
      "name": ""
    },
    {
      "children": [
        10
      ],
      "name": "Geode"
    },
    {
      "children": [
        14,
        16,
        18,
        20
      ],
      "name": ""
    },
    {
      "mesh": 4,
      "name": ""
    },
    {
      "children": [
        13
      ],
      "name": "Geode"
    },
    {
      "mesh": 5,
      "name": ""
    },
    {
      "children": [
        15
      ],
      "name": "Geode"
    },
    {
      "mesh": 6,
      "name": ""
    },
    {
      "children": [
        17
      ],
      "name": "Geode"
    },
    {
      "mesh": 7,
      "name": ""
    },
    {
      "children": [
        19
      ],
      "name": "Geode"
    }
  ],
  "samplers": [
    {
      "magFilter": 9729,
      "minFilter": 9987,
      "wrapS": 10497,
      "wrapT": 10497
    }
  ],
  "scene": 0,
  "scenes": [
    {
      "name": "OSG_Scene",
      "nodes": [
        0
      ]
    }
  ],
  "textures": [
    {
      "sampler": 0,
      "source": 0
    },
    {
      "sampler": 0,
      "source": 1
    },
    {
      "sampler": 0,
      "source": 2
    },
    {
      "sampler": 0,
      "source": 3
    },
    {
      "sampler": 0,
      "source": 4
    },
    {
      "sampler": 0,
      "source": 5
    },
    {
      "sampler": 0,
      "source": 6
    }
  ]
}

