{
  "accessors": [
    {
      "bufferView": 2,
      "componentType": 5126,
      "count": 65532,
      "max": [
        2.5618040561676025,
        -6.770139217376709,
        1.8526439666748047
      ],
      "min": [
        -2.6800620555877686,
        -10.505316734313965,
        -1.9998819828033447
      ],
      "type": "VEC3"
    },
    {
      "bufferView": 2,
      "byteOffset": 786384,
      "componentType": 5126,
      "count": 65532,
      "max": [
        0.99998992681503296,
        0.99994450807571411,
        0.99991136789321899
      ],
      "min": [
        -0.99998027086257935,
        -0.99988096952438354,
        -0.99999141693115234
      ],
      "type": "VEC3"
    },
    {
      "bufferView": 3,
      "componentType": 5126,
      "count": 65532,
      "max": [
        0.99985224008560181,
        0.99985438585281372,
        0.99985122680664062,
        1
      ],
      "min": [
        -0.99983787536621094,
        -0.9999690055847168,
        -0.99901896715164185,
        -1
      ],
      "type": "VEC4"
    },
    {
      "bufferView": 1,
      "componentType": 5126,
      "count": 65532,
      "max": [
        0.99089497327804565,
        0.99963802099227905
      ],
      "min": [
        0.0015670000575482845,
        0.033183999359607697
      ],
      "type": "VEC2"
    },
    {
      "bufferView": 0,
      "componentType": 5125,
      "count": 324789,
      "max": [
        65531
      ],
      "min": [
        0
      ],
      "type": "SCALAR"
    },
    {
      "bufferView": 2,
      "byteOffset": 1572768,
      "componentType": 5126,
      "count": 37790,
      "max": [
        3.4163858890533447,
        -6.8545551300048828,
        2.5563430786132812
      ],
      "min": [
        -2.4656040668487549,
        -11.65494441986084,
        -0.83019101619720459
      ],
      "type": "VEC3"
    },
    {
      "bufferView": 2,
      "byteOffset": 2026248,
      "componentType": 5126,
      "count": 37790,
      "max": [
        0.99998295307159424,
        0.99994665384292603,
        0.99998784065246582
      ],
      "min": [
        -0.99997788667678833,
        -0.99988096952438354,
        -0.99976116418838501
      ],
      "type": "VEC3"
    },
    {
      "bufferView": 3,
      "byteOffset": 1048512,
      "componentType": 5126,
      "count": 37790,
      "max": [
        0.99810552597045898,
        0.99410438537597656,
        0.99870055913925171,
        1
      ],
      "min": [
        -0.9999624490737915,
        -0.99998223781585693,
        -0.99894440174102783,
        -1
      ],
      "type": "VEC4"
    },
    {
      "bufferView": 1,
      "byteOffset": 524256,
      "componentType": 5126,
      "count": 37790,
      "max": [
        0.99469602108001709,
        0.99619597196578979
      ],
      "min": [
        0.0026010000146925449,
        0.0031610000878572464
      ],
      "type": "VEC2"
    },
    {
      "bufferView": 0,
      "byteOffset": 1299156,
      "componentType": 5125,
      "count": 194745,
      "max": [
        37789
      ],
      "min": [
        0
      ],
      "type": "SCALAR"
    }
  ],
  "asset": {
    "generator": "Sketchfab (OSG glTF plugin)",
    "version": "2.0"
  },
  "bufferViews": [
    {
      "buffer": 0,
      "byteLength": 2078136,
      "byteOffset": 0,
      "name": "floatBufferViews",
      "target": 34963
    },
    {
      "buffer": 0,
      "byteLength": 826576,
      "byteOffset": 2078136,
      "byteStride": 8,
      "name": "floatBufferViews",
      "target": 34962
    },
    {
      "buffer": 0,
      "byteLength": 2479728,
      "byteOffset": 2904712,
      "byteStride": 12,
      "name": "floatBufferViews",
      "target": 34962
    },
    {
      "buffer": 0,
      "byteLength": 1653152,
      "byteOffset": 5384440,
      "byteStride": 16,
      "name": "floatBufferViews",
      "target": 34962
    }
  ],
  "buffers": [
    {
      "byteLength": 7037592,
      "uri": "scene.bin"
    }
  ],
  "extensionsRequired": [
    "KHR_materials_pbrSpecularGlossiness"
  ],
  "extensionsUsed": [
    "KHR_materials_pbrSpecularGlossiness"
  ],
  "images": [
    {
      "uri": "textures/material_0_diffuse.jpeg"
    }
  ],
  "materials": [
    {
      "doubleSided": true,
      "emissiveFactor": [
        0,
        0,
        0
      ],
      "extensions": {
        "KHR_materials_pbrSpecularGlossiness": {
          "diffuseFactor": [
            1,
            1,
            1,
            1
          ],
          "diffuseTexture": {
            "index": 0,
            "texCoord": 0
          },
          "glossinessFactor": 0,
          "specularFactor": [
            0,
            0,
            0
          ]
        }
      },
      "name": "material_0",
      "occlusionFactor": 1
    }
  ],
  "meshes": [
    {
      "primitives": [
        {
          "attributes": {
            "NORMAL": 1,
            "POSITION": 0,
            "TANGENT": 2,
            "TEXCOORD_0": 3
          },
          "indices": 4,
          "material": 0,
          "mode": 4
        }
      ]
    },
    {
      "primitives": [
        {
          "attributes": {
            "NORMAL": 6,
            "POSITION": 5,
            "TANGENT": 7,
            "TEXCOORD_0": 8
          },
          "indices": 9,
          "material": 0,
          "mode": 4
        }
      ]
    }
  ],
  "nodes": [
    {
      "children": [
        1
      ],
      "name": "RootNode (gltf orientation matrix)",
      "rotation": [
        -0.70710678118654746,
        -0,
        -0,
        0.70710678118654757
      ]
    },
    {
      "children": [
        2
      ],
      "matrix": [
        -0.87344694137573242,
        0.48392337560653687,
        -0.053931836038827896,
        0,
        0.4266791045665741,
        0.8140416145324707,
        0.39405733346939087,
        0,
        0.23459632694721222,
        0.32117658853530884,
        -0.91750210523605347,
        0,
        4.5337691307067871,
        -2.0922794342041016,
        4.773524284362793,
        1
      ],
      "name": "RootNode (model correction matrix)"
    },
    {
      "children": [
        3
      ],
      "name": "Elephant.obj.cleaner.gles"
    },
    {
      "children": [
        4,
        5
      ],
      "name": "Geode"
    },
    {
      "mesh": 0,
      "name": ""
    },
    {
      "mesh": 1,
      "name": ""
    }
  ],
  "samplers": [
    {
      "magFilter": 9729,
      "minFilter": 9987,
      "wrapS": 10497,
      "wrapT": 10497
    }
  ],
  "scene": 0,
  "scenes": [
    {
      "name": "OSG_Scene",
      "nodes": [
        0
      ]
    }
  ],
  "textures": [
    {
      "sampler": 0,
      "source": 0
    }
  ]
}

