{"accessors":[{"bufferView":2,"componentType":5126,"count":23473,"max":[203.22096252441406,1931.0499267578125,583.07080078125],"min":[-203.22096252441406,0,-583.07080078125],"type":"VEC3"},{"bufferView":2,"byteOffset":281676,"componentType":5126,"count":23473,"max":[1,1,1],"min":[-1,-1,-1],"type":"VEC3"},{"bufferView":3,"componentType":5126,"count":23473,"max":[1,1,0.9999911189079285,1],"min":[-0.9999996423721313,-1,-1,-1],"type":"VEC4"},{"bufferView":3,"byteOffset":375568,"componentType":5126,"count":23473,"max":[1,1,1,1],"min":[1,1,1,1],"type":"VEC4"},{"bufferView":1,"componentType":5126,"count":23473,"max":[0.8079127073287964,0.9999819993972778],"min":[0.00016295909881591797,0.00005316734313964844],"type":"VEC2"},{"bufferView":0,"componentType":5125,"count":109452,"max":[23472],"min":[0],"type":"SCALAR"}],"asset":{"generator":"Sketchfab (OSG glTF plugin)","version":"2.0"},"bufferViews":[{"buffer":0,"byteLength":437808,"byteOffset":0,"name":"floatBufferViews","target":34963},{"buffer":0,"byteLength":187784,"byteOffset":437808,"byteStride":8,"name":"floatBufferViews","target":34962},{"buffer":0,"byteLength":563352,"byteOffset":625592,"byteStride":12,"name":"floatBufferViews","target":34962},{"buffer":0,"byteLength":751136,"byteOffset":1188944,"byteStride":16,"name":"floatBufferViews","target":34962}],"buffers":[{"byteLength":1940080,"uri":"scene.bin"}],"images":[{"uri":"textures/Material_77_baseColor.png"}],"materials":[{"doubleSided":true,"emissiveFactor":[0,0,0],"name":"Material_77","pbrMetallicRoughness":{"baseColorFactor":[1,1,1,1],"baseColorTexture":{"index":0,"texCoord":0},"metallicFactor":0,"roughnessFactor":0.8946860015}}],"meshes":[{"name":"root_Material_77_0","primitives":[{"attributes":{"COLOR_0":3,"NORMAL":1,"POSITION":0,"TANGENT":2,"TEXCOORD_0":4},"indices":5,"material":0,"mode":4}]}],"nodes":[{"children":[1],"name":"RootNode (gltf orientation matrix)","rotation":[-0.7071067811865475,0,0,0.7071067811865476]},{"children":[2],"name":"RootNode (model correction matrix)"},{"children":[3],"matrix":[1,0,0,0,0,0,1,0,0,-1,0,0,0,0,0,1],"name":"2a940ceb51354c92ad10ea61c1416f46.fbx"},{"children":[4],"name":"RootNode"},{"children":[5],"name":"root"},{"children":[6],"matrix":[4.741085995714247e-11,0,-0.0002651406975928694,0,0,0.00015110101958271116,0,0,0.0002651406975928694,0,4.741085995714247e-11,0,0.031662147492170334,-0.14321637153625488,0.25600001215934753,1],"name":""},{"children":[7],"name":"Geode"},{"mesh":0,"name":"root_Material_77_0"}],"samplers":[{"magFilter":9729,"minFilter":9987,"wrapS":10497,"wrapT":10497}],"scene":0,"scenes":[{"name":"OSG_Scene","nodes":[0]}],"textures":[{"sampler":0,"source":0}]}
