{
  "accessors": [
    {
      "bufferView": 2,
      "componentType": 5126,
      "count": 72,
      "max": [
        0.044780001044273376,
        0.044780001044273376,
        0.026960000395774841
      ],
      "min": [
        -0.044780001044273376,
        -0.37617999315261841,
        -0.026960000395774841
      ],
      "type": "VEC3"
    },
    {
      "bufferView": 2,
      "byteOffset": 864,
      "componentType": 5126,
      "count": 72,
      "max": [
        1,
        1,
        1
      ],
      "min": [
        -1,
        -1,
        -1
      ],
      "type": "VEC3"
    },
    {
      "bufferView": 0,
      "componentType": 5125,
      "count": 108,
      "max": [
        71
      ],
      "min": [
        0
      ],
      "type": "SCALAR"
    },
    {
      "bufferView": 2,
      "byteOffset": 1728,
      "componentType": 5126,
      "count": 24,
      "max": [
        0.044780001044273376,
        -0.45232000946998596,
        0.026960000395774841
      ],
      "min": [
        -0.044780001044273376,
        -0.54188001155853271,
        -0.026960000395774841
      ],
      "type": "VEC3"
    },
    {
      "bufferView": 2,
      "byteOffset": 2016,
      "componentType": 5126,
      "count": 24,
      "max": [
        1,
        1,
        1
      ],
      "min": [
        -1,
        -1,
        -1
      ],
      "type": "VEC3"
    },
    {
      "bufferView": 0,
      "byteOffset": 432,
      "componentType": 5125,
      "count": 36,
      "max": [
        23
      ],
      "min": [
        0
      ],
      "type": "SCALAR"
    },
    {
      "bufferView": 2,
      "byteOffset": 2304,
      "componentType": 5126,
      "count": 306,
      "max": [
        0.11268000304698944,
        2.1269299983978271,
        1.3703800439834595
      ],
      "min": [
        -0.028480000793933868,
        -0.025869999080896378,
        -0.030519999563694
      ],
      "type": "VEC3"
    },
    {
      "bufferView": 2,
      "byteOffset": 5976,
      "componentType": 5126,
      "count": 306,
      "max": [
        0.92329078912734985,
        0.97924160957336426,
        0.95239615440368652
      ],
      "min": [
        -0.92329078912734985,
        -0.84216177463531494,
        -0.78590083122253418
      ],
      "type": "VEC3"
    },
    {
      "bufferView": 0,
      "byteOffset": 576,
      "componentType": 5125,
      "count": 468,
      "max": [
        305
      ],
      "min": [
        0
      ],
      "type": "SCALAR"
    },
    {
      "bufferView": 2,
      "byteOffset": 9648,
      "componentType": 5126,
      "count": 28,
      "max": [
        0.052230000495910645,
        2.5918200016021729,
        0.35550001263618469
      ],
      "min": [
        -0.052230000495910645,
        -0.18381999433040619,
        0.24524000287055969
      ],
      "type": "VEC3"
    },
    {
      "bufferView": 2,
      "byteOffset": 9984,
      "componentType": 5126,
      "count": 28,
      "max": [
        0.999137282371521,
        -0,
        1
      ],
      "min": [
        -0.999137282371521,
        -0,
        -1
      ],
      "type": "VEC3"
    },
    {
      "bufferView": 3,
      "componentType": 5126,
      "count": 28,
      "max": [
        0.085173115134239197,
        0.99999940395355225,
        0.086893871426582336,
        -1
      ],
      "min": [
        -0.082355156540870667,
        -0.99717146158218384,
        -0.26030570268630981,
        -1
      ],
      "type": "VEC4"
    },
    {
      "bufferView": 1,
      "componentType": 5126,
      "count": 28,
      "max": [
        0.24219000339508057,
        0.86719000339508057
      ],
      "min": [
        0.13280999660491943,
        0.75780999660491943
      ],
      "type": "VEC2"
    },
    {
      "bufferView": 0,
      "byteOffset": 2448,
      "componentType": 5125,
      "count": 60,
      "max": [
        27
      ],
      "min": [
        0
      ],
      "type": "SCALAR"
    },
    {
      "bufferView": 2,
      "byteOffset": 10320,
      "componentType": 5126,
      "count": 138,
      "max": [
        0.064949996769428253,
        2.6195299625396729,
        0.35550001263618469
      ],
      "min": [
        -0.064949996769428253,
        -0.21152999997138977,
        -0.21125000715255737
      ],
      "type": "VEC3"
    },
    {
      "bufferView": 2,
      "byteOffset": 11976,
      "componentType": 5126,
      "count": 138,
      "max": [
        0.99953961372375488,
        1,
        1
      ],
      "min": [
        -0.9994661808013916,
        -1,
        -1
      ],
      "type": "VEC3"
    },
    {
      "bufferView": 3,
      "byteOffset": 448,
      "componentType": 5126,
      "count": 138,
      "max": [
        0.85924661159515381,
        0,
        0,
        1
      ],
      "min": [
        -0.80359417200088501,
        0,
        -0.99999672174453735,
        -1
      ],
      "type": "VEC4"
    },
    {
      "bufferView": 0,
      "byteOffset": 2688,
      "componentType": 5125,
      "count": 228,
      "max": [
        137
      ],
      "min": [
        0
      ],
      "type": "SCALAR"
    },
    {
      "bufferView": 2,
      "byteOffset": 13632,
      "componentType": 5126,
      "count": 273,
      "max": [
        0.18221999704837799,
        1.3813400268554688,
        0.77935999631881714
      ],
      "min": [
        -0.22123999893665314,
        -1.3813400268554688,
        -0.77935999631881714
      ],
      "type": "VEC3"
    },
    {
      "bufferView": 2,
      "byteOffset": 16908,
      "componentType": 5126,
      "count": 273,
      "max": [
        1,
        1,
        1
      ],
      "min": [
        -1,
        -1,
        -1
      ],
      "type": "VEC3"
    },
    {
      "bufferView": 3,
      "byteOffset": 2656,
      "componentType": 5126,
      "count": 273,
      "max": [
        1,
        1,
        1,
        1
      ],
      "min": [
        -1,
        -1,
        -1,
        -1
      ],
      "type": "VEC4"
    },
    {
      "bufferView": 1,
      "byteOffset": 224,
      "componentType": 5126,
      "count": 273,
      "max": [
        1,
        0.85870999097824097
      ],
      "min": [
        0,
        0
      ],
      "type": "VEC2"
    },
    {
      "bufferView": 0,
      "byteOffset": 3600,
      "componentType": 5125,
      "count": 468,
      "max": [
        272
      ],
      "min": [
        0
      ],
      "type": "SCALAR"
    },
    {
      "bufferView": 2,
      "byteOffset": 20184,
      "componentType": 5126,
      "count": 336,
      "max": [
        0.045979999005794525,
        0.094329997897148132,
        0.094329997897148132
      ],
      "min": [
        -0.053029999136924744,
        -0.66032999753952026,
        -0.094329997897148132
      ],
      "type": "VEC3"
    },
    {
      "bufferView": 2,
      "byteOffset": 24216,
      "componentType": 5126,
      "count": 336,
      "max": [
        1,
        0.92388087511062622,
        0.92388087511062622
      ],
      "min": [
        -1,
        -0.92388087511062622,
        -0.92388087511062622
      ],
      "type": "VEC3"
    },
    {
      "bufferView": 3,
      "byteOffset": 7024,
      "componentType": 5126,
      "count": 336,
      "max": [
        1,
        0.923880934715271,
        0.923880934715271,
        1
      ],
      "min": [
        0,
        -0.923880934715271,
        -1,
        -1
      ],
      "type": "VEC4"
    },
    {
      "bufferView": 0,
      "byteOffset": 5472,
      "componentType": 5125,
      "count": 540,
      "max": [
        335
      ],
      "min": [
        0
      ],
      "type": "SCALAR"
    },
    {
      "bufferView": 2,
      "byteOffset": 28248,
      "componentType": 5126,
      "count": 96,
      "max": [
        0.123539999127388,
        0.05276000127196312,
        0.123539999127388
      ],
      "min": [
        -0.123539999127388,
        -0.067479997873306274,
        -0.123539999127388
      ],
      "type": "VEC3"
    },
    {
      "bufferView": 2,
      "byteOffset": 29400,
      "componentType": 5126,
      "count": 96,
      "max": [
        0.92388087511062622,
        1,
        0.92388087511062622
      ],
      "min": [
        -0.92388087511062622,
        -1,
        -0.92388087511062622
      ],
      "type": "VEC3"
    },
    {
      "bufferView": 0,
      "byteOffset": 7632,
      "componentType": 5125,
      "count": 180,
      "max": [
        95
      ],
      "min": [
        0
      ],
      "type": "SCALAR"
    },
    {
      "bufferView": 2,
      "byteOffset": 30552,
      "componentType": 5126,
      "count": 80,
      "max": [
        0.076030001044273376,
        0.041120000183582306,
        0.041120000183582306
      ],
      "min": [
        -0.018759999424219131,
        -0.041120000183582306,
        -0.041120000183582306
      ],
      "type": "VEC3"
    },
    {
      "bufferView": 2,
      "byteOffset": 31512,
      "componentType": 5126,
      "count": 80,
      "max": [
        1,
        0.92388087511062622,
        0.92388087511062622
      ],
      "min": [
        -1,
        -0.92388087511062622,
        -0.92388087511062622
      ],
      "type": "VEC3"
    },
    {
      "bufferView": 0,
      "byteOffset": 8352,
      "componentType": 5125,
      "count": 132,
      "max": [
        79
      ],
      "min": [
        0
      ],
      "type": "SCALAR"
    },
    {
      "bufferView": 2,
      "byteOffset": 32472,
      "componentType": 5126,
      "count": 144,
      "max": [
        0.044780001044273376,
        0.044780001044273376,
        0.026960000395774841
      ],
      "min": [
        -0.044780001044273376,
        -0.87327998876571655,
        -0.026960000395774841
      ],
      "type": "VEC3"
    },
    {
      "bufferView": 2,
      "byteOffset": 34200,
      "componentType": 5126,
      "count": 144,
      "max": [
        1,
        1,
        1
      ],
      "min": [
        -1,
        -1,
        -1
      ],
      "type": "VEC3"
    },
    {
      "bufferView": 0,
      "byteOffset": 8880,
      "componentType": 5125,
      "count": 216,
      "max": [
        143
      ],
      "min": [
        0
      ],
      "type": "SCALAR"
    }
  ],
  "asset": {
    "generator": "Sketchfab (OSG glTF plugin)",
    "version": "2.0"
  },
  "bufferViews": [
    {
      "buffer": 0,
      "byteLength": 9744,
      "byteOffset": 0,
      "name": "floatBufferViews",
      "target": 34963
    },
    {
      "buffer": 0,
      "byteLength": 2408,
      "byteOffset": 9744,
      "byteStride": 8,
      "name": "floatBufferViews",
      "target": 34962
    },
    {
      "buffer": 0,
      "byteLength": 35928,
      "byteOffset": 12152,
      "byteStride": 12,
      "name": "floatBufferViews",
      "target": 34962
    },
    {
      "buffer": 0,
      "byteLength": 12400,
      "byteOffset": 48080,
      "byteStride": 16,
      "name": "floatBufferViews",
      "target": 34962
    }
  ],
  "buffers": [
    {
      "byteLength": 60480,
      "uri": "scene.bin"
    }
  ],
  "extensionsRequired": [
    "KHR_materials_pbrSpecularGlossiness"
  ],
  "extensionsUsed": [
    "KHR_materials_pbrSpecularGlossiness"
  ],
  "images": [
    {
      "uri": "textures/Pixel%20Texture_diffuse.png"
    }
  ],
  "materials": [
    {
      "doubleSided": true,
      "emissiveFactor": [
        0,
        0,
        0
      ],
      "extensions": {
        "KHR_materials_pbrSpecularGlossiness": {
          "diffuseFactor": [
            0.089522415300000005,
            0.089522415300000005,
            0.089522415300000005,
            1
          ],
          "glossinessFactor": 0.40000000000000002,
          "specularFactor": [
            0.44963190749999998,
            0.44963190749999998,
            0.44963190749999998
          ]
        }
      },
      "name": "Metal"
    },
    {
      "doubleSided": true,
      "emissiveFactor": [
        0,
        0,
        0
      ],
      "extensions": {
        "KHR_materials_pbrSpecularGlossiness": {
          "diffuseFactor": [
            1,
            1,
            1,
            1
          ],
          "diffuseTexture": {
            "index": 0,
            "texCoord": 0
          },
          "glossinessFactor": 0,
          "specularFactor": [
            0,
            0,
            0
          ]
        }
      },
      "name": "Pixel Texture"
    },
    {
      "doubleSided": true,
      "emissiveFactor": [
        0,
        0,
        0
      ],
      "extensions": {
        "KHR_materials_pbrSpecularGlossiness": {
          "diffuseFactor": [
            1,
            0.022903998599999999,
            0.022903998599999999,
            1
          ],
          "glossinessFactor": 0.40000000000000002,
          "specularFactor": [
            0,
            0,
            0
          ]
        }
      },
      "name": "Red Button"
    }
  ],
  "meshes": [
    {
      "name": "Cube.003_0",
      "primitives": [
        {
          "attributes": {
            "NORMAL": 1,
            "POSITION": 0
          },
          "indices": 2,
          "material": 0,
          "mode": 4
        }
      ]
    },
    {
      "name": "Cube.003_1",
      "primitives": [
        {
          "attributes": {
            "NORMAL": 4,
            "POSITION": 3
          },
          "indices": 5,
          "material": 2,
          "mode": 4
        }
      ]
    },
    {
      "name": "Cylinder.003_0",
      "primitives": [
        {
          "attributes": {
            "NORMAL": 7,
            "POSITION": 6
          },
          "indices": 8,
          "material": 0,
          "mode": 4
        }
      ]
    },
    {
      "name": "Cube.001_0",
      "primitives": [
        {
          "attributes": {
            "NORMAL": 10,
            "POSITION": 9,
            "TANGENT": 11,
            "TEXCOORD_0": 12
          },
          "indices": 13,
          "material": 1,
          "mode": 4
        }
      ]
    },
    {
      "name": "Cube.001_1",
      "primitives": [
        {
          "attributes": {
            "NORMAL": 15,
            "POSITION": 14,
            "TANGENT": 16
          },
          "indices": 17,
          "material": 0,
          "mode": 4
        }
      ]
    },
    {
      "name": "Cube_0",
      "primitives": [
        {
          "attributes": {
            "NORMAL": 19,
            "POSITION": 18,
            "TANGENT": 20,
            "TEXCOORD_0": 21
          },
          "indices": 22,
          "material": 1,
          "mode": 4
        }
      ]
    },
    {
      "name": "Cylinder_0",
      "primitives": [
        {
          "attributes": {
            "NORMAL": 24,
            "POSITION": 23,
            "TANGENT": 25
          },
          "indices": 26,
          "material": 0,
          "mode": 4
        }
      ]
    },
    {
      "name": "Cylinder.001_0",
      "primitives": [
        {
          "attributes": {
            "NORMAL": 28,
            "POSITION": 27
          },
          "indices": 29,
          "material": 0,
          "mode": 4
        }
      ]
    },
    {
      "name": "Cylinder.002_0",
      "primitives": [
        {
          "attributes": {
            "NORMAL": 31,
            "POSITION": 30
          },
          "indices": 32,
          "material": 0,
          "mode": 4
        }
      ]
    },
    {
      "name": "Cube.002_0",
      "primitives": [
        {
          "attributes": {
            "NORMAL": 34,
            "POSITION": 33
          },
          "indices": 35,
          "material": 0,
          "mode": 4
        }
      ]
    }
  ],
  "nodes": [
    {
      "children": [
        1
      ],
      "name": "RootNode (gltf orientation matrix)",
      "rotation": [
        -0.70710678118654746,
        -0,
        -0,
        0.70710678118654757
      ]
    },
    {
      "children": [
        2
      ],
      "name": "RootNode (model correction matrix)"
    },
    {
      "children": [
        3,
        7,
        10,
        14,
        17,
        19,
        22,
        25,
        28
      ],
      "name": "Root"
    },
    {
      "children": [
        4
      ],
      "matrix": [
        1,
        0,
        0,
        0,
        0,
        1,
        0,
        0,
        0,
        0,
        1,
        0,
        -0.21507000000000001,
        -1.2396499999999999,
        0.5675,
        1
      ],
      "name": "Cube.003"
    },
    {
      "children": [
        5,
        6
      ],
      "name": "Geode"
    },
    {
      "mesh": 0,
      "name": "Cube.003_0"
    },
    {
      "mesh": 1,
      "name": "Cube.003_1"
    },
    {
      "children": [
        8
      ],
      "matrix": [
        1,
        0,
        0,
        0,
        0,
        1,
        0,
        0,
        0,
        0,
        1,
        0,
        0.21369000000000002,
        -1.6664300000000001,
        1.39636,
        1
      ],
      "name": "Cylinder.003"
    },
    {
      "children": [
        9
      ],
      "name": "Geode"
    },
    {
      "mesh": 2,
      "name": "Cylinder.003_0"
    },
    {
      "children": [
        11
      ],
      "matrix": [
        1,
        0,
        0,
        0,
        0,
        1,
        0,
        0,
        0,
        0,
        1,
        0,
        0.0060700000000000016,
        -1.69163,
        1.6269400000000001,
        1
      ],
      "name": "Cube.001"
    },
    {
      "children": [
        12,
        13
      ],
      "name": "Geode"
    },
    {
      "mesh": 3,
      "name": "Cube.001_0"
    },
    {
      "mesh": 4,
      "name": "Cube.001_1"
    },
    {
      "children": [
        15
      ],
      "matrix": [
        1,
        0,
        0,
        0,
        0,
        1,
        0,
        0,
        0,
        0,
        1,
        0,
        0,
        -0.48763000000000001,
        0.77603,
        1
      ],
      "name": "Cube"
    },
    {
      "children": [
        16
      ],
      "name": "Geode"
    },
    {
      "mesh": 5,
      "name": "Cube_0"
    },
    {
      "children": [
        18
      ],
      "matrix": [
        -0.79827000000000004,
        -0.35538000000000008,
        -0.48628000000000005,
        0,
        -0.037440000000000001,
        -0.77652999999999994,
        0.62897000000000014,
        0,
        -0.60113000000000005,
        0.52029999999999998,
        0.60657000000000005,
        0,
        -2.5398199999999997,
        2.8522899999999995,
        5.9038600000000008,
        1
      ],
      "name": "Lamp"
    },
    {
      "name": "Lamp"
    },
    {
      "children": [
        20
      ],
      "matrix": [
        1.1193199999999999,
        0,
        0,
        0,
        0,
        1.1193199999999999,
        0,
        0,
        0,
        0,
        1.1193199999999999,
        0,
        -0.24743000000000004,
        -0.96050999999999997,
        0.28231000000000006,
        1
      ],
      "name": "Cylinder"
    },
    {
      "children": [
        21
      ],
      "name": "Geode"
    },
    {
      "mesh": 6,
      "name": "Cylinder_0"
    },
    {
      "children": [
        23
      ],
      "matrix": [
        1,
        0,
        0,
        0,
        0,
        1,
        0,
        0,
        0,
        0,
        1,
        0,
        0.0041200000000000013,
        -1.88622,
        0.97355999999999987,
        1
      ],
      "name": "Cylinder.001"
    },
    {
      "children": [
        24
      ],
      "name": "Geode"
    },
    {
      "mesh": 7,
      "name": "Cylinder.001_0"
    },
    {
      "children": [
        26
      ],
      "matrix": [
        1,
        0,
        0,
        0,
        0,
        1,
        0,
        0,
        0,
        0,
        1,
        0,
        0.17898000000000003,
        -1.6953400000000001,
        1.3765000000000001,
        1
      ],
      "name": "Cylinder.002"
    },
    {
      "children": [
        27
      ],
      "name": "Geode"
    },
    {
      "mesh": 8,
      "name": "Cylinder.002_0"
    },
    {
      "children": [
        29
      ],
      "matrix": [
        1,
        0,
        0,
        0,
        0,
        1,
        0,
        0,
        0,
        0,
        1,
        0,
        -0.21507000000000001,
        -0.90937000000000001,
        0.71882000000000013,
        1
      ],
      "name": "Cube.002"
    },
    {
      "children": [
        30
      ],
      "name": "Geode"
    },
    {
      "mesh": 9,
      "name": "Cube.002_0"
    }
  ],
  "samplers": [
    {
      "magFilter": 9728,
      "minFilter": 9728,
      "wrapS": 10497,
      "wrapT": 10497
    }
  ],
  "scene": 0,
  "scenes": [
    {
      "name": "OSG_Scene",
      "nodes": [
        0
      ]
    }
  ],
  "textures": [
    {
      "sampler": 0,
      "source": 0
    }
  ]
}

