{
  "accessors": [
    {
      "bufferView": 1,
      "componentType": 5126,
      "count": 1290,
      "max": [
        0.50252997875213623,
        3.7317800521850586,
        1.1374599933624268
      ],
      "min": [
        -0.50252997875213623,
        -3.520129919052124,
        -3.5414299964904785
      ],
      "type": "VEC3"
    },
    {
      "bufferView": 1,
      "byteOffset": 15480,
      "componentType": 5126,
      "count": 1290,
      "max": [
        1,
        0.99997454881668091,
        1
      ],
      "min": [
        -1,
        -1,
        -0.9999089241027832
      ],
      "type": "VEC3"
    },
    {
      "bufferView": 0,
      "componentType": 5125,
      "count": 7725,
      "max": [
        1289
      ],
      "min": [
        0
      ],
      "type": "SCALAR"
    },
    {
      "bufferView": 1,
      "byteOffset": 30960,
      "componentType": 5126,
      "count": 106,
      "max": [
        0.461760014295578,
        2.0000801086425781,
        3.6776299476623535
      ],
      "min": [
        -0.461760014295578,
        -0.99431997537612915,
        -0.83849000930786133
      ],
      "type": "VEC3"
    },
    {
      "bufferView": 1,
      "byteOffset": 32232,
      "componentType": 5126,
      "count": 106,
      "max": [
        0.93722116947174072,
        0.95983463525772095,
        0.88506776094436646
      ],
      "min": [
        -0.93722116947174072,
        -0.95042473077774048,
        -0.99492740631103516
      ],
      "type": "VEC3"
    },
    {
      "bufferView": 0,
      "byteOffset": 30900,
      "componentType": 5125,
      "count": 624,
      "max": [
        105
      ],
      "min": [
        0
      ],
      "type": "SCALAR"
    },
    {
      "bufferView": 1,
      "byteOffset": 33504,
      "componentType": 5126,
      "count": 192,
      "max": [
        1,
        3.2697300910949707,
        1
      ],
      "min": [
        -1,
        -1.8217699527740479,
        -1
      ],
      "type": "VEC3"
    },
    {
      "bufferView": 1,
      "byteOffset": 35808,
      "componentType": 5126,
      "count": 192,
      "max": [
        0.99234336614608765,
        0.88189458847045898,
        0.99234336614608765
      ],
      "min": [
        -0.99234336614608765,
        -0.88814002275466919,
        -0.99234336614608765
      ],
      "type": "VEC3"
    },
    {
      "bufferView": 0,
      "byteOffset": 33396,
      "componentType": 5125,
      "count": 1140,
      "max": [
        191
      ],
      "min": [
        0
      ],
      "type": "SCALAR"
    },
    {
      "bufferView": 1,
      "byteOffset": 38112,
      "componentType": 5126,
      "count": 104,
      "max": [
        0.093900002539157867,
        0.67686998844146729,
        0.674049973487854
      ],
      "min": [
        -0.093900002539157867,
        -0.3166700005531311,
        -0.65507000684738159
      ],
      "type": "VEC3"
    },
    {
      "bufferView": 1,
      "byteOffset": 39360,
      "componentType": 5126,
      "count": 104,
      "max": [
        1,
        0.95446890592575073,
        0.96180009841918945
      ],
      "min": [
        -1,
        -0.96180009841918945,
        -0.94672805070877075
      ],
      "type": "VEC3"
    },
    {
      "bufferView": 0,
      "byteOffset": 37956,
      "componentType": 5125,
      "count": 612,
      "max": [
        103
      ],
      "min": [
        0
      ],
      "type": "SCALAR"
    }
  ],
  "asset": {
    "generator": "Sketchfab (OSG glTF plugin)",
    "version": "2.0"
  },
  "bufferViews": [
    {
      "buffer": 0,
      "byteLength": 40404,
      "byteOffset": 0,
      "name": "floatBufferViews",
      "target": 34963
    },
    {
      "buffer": 0,
      "byteLength": 40608,
      "byteOffset": 40404,
      "byteStride": 12,
      "name": "floatBufferViews",
      "target": 34962
    }
  ],
  "buffers": [
    {
      "byteLength": 81012,
      "uri": "scene.bin"
    }
  ],
  "materials": [
    {
      "doubleSided": true,
      "emissiveFactor": [
        0,
        0,
        0
      ],
      "name": "Material.002",
      "pbrMetallicRoughness": {
        "baseColorFactor": [
          0.80000001190000003,
          0.80000001190000003,
          0.80000001190000003,
          1
        ],
        "metallicFactor": 0,
        "roughnessFactor": 0.59999999999999998
      }
    },
    {
      "doubleSided": true,
      "emissiveFactor": [
        0,
        0,
        0
      ],
      "name": "Material.001",
      "pbrMetallicRoughness": {
        "baseColorFactor": [
          0.34715108509999998,
          0.2232527426,
          0.027055992300000001,
          1
        ],
        "metallicFactor": 0,
        "roughnessFactor": 0.59999999999999998
      }
    },
    {
      "doubleSided": true,
      "emissiveFactor": [
        0,
        0,
        0
      ],
      "name": "Material.003",
      "pbrMetallicRoughness": {
        "baseColorFactor": [
          0.79910273799999998,
          0.79910273799999998,
          0.79910273799999998,
          1
        ],
        "metallicFactor": 0,
        "roughnessFactor": 0.59999999999999998
      }
    }
  ],
  "meshes": [
    {
      "name": "Cube_0",
      "primitives": [
        {
          "attributes": {
            "NORMAL": 1,
            "POSITION": 0
          },
          "indices": 2,
          "material": 0,
          "mode": 4
        }
      ]
    },
    {
      "name": "Cube.001_0",
      "primitives": [
        {
          "attributes": {
            "NORMAL": 4,
            "POSITION": 3
          },
          "indices": 5,
          "material": 2,
          "mode": 4
        }
      ]
    },
    {
      "name": "Cylinder_0",
      "primitives": [
        {
          "attributes": {
            "NORMAL": 7,
            "POSITION": 6
          },
          "indices": 8,
          "material": 1,
          "mode": 4
        }
      ]
    },
    {
      "name": "Cube.002_0",
      "primitives": [
        {
          "attributes": {
            "NORMAL": 10,
            "POSITION": 9
          },
          "indices": 11,
          "material": 0,
          "mode": 4
        }
      ]
    }
  ],
  "nodes": [
    {
      "children": [
        1
      ],
      "name": "RootNode (gltf orientation matrix)",
      "rotation": [
        -0.70710678118654746,
        -0,
        -0,
        0.70710678118654757
      ]
    },
    {
      "children": [
        2
      ],
      "name": "RootNode (model correction matrix)"
    },
    {
      "children": [
        3,
        5,
        8,
        11,
        14
      ],
      "name": "Root"
    },
    {
      "children": [
        4
      ],
      "matrix": [
        -0.29086000000000006,
        0.95517000000000007,
        -0.05519000000000001,
        0,
        -0.77110000000000001,
        -0.19988000000000003,
        0.60452000000000006,
        0,
        0.56639000000000006,
        0.21839000000000003,
        0.7946700000000001,
        0,
        4.0762500000000008,
        1.00545,
        5.9038600000000008,
        1
      ],
      "name": "Lamp"
    },
    {
      "name": "Lamp"
    },
    {
      "children": [
        7
      ],
      "matrix": [
        1,
        0,
        0,
        0,
        0,
        1,
        0,
        0,
        0,
        0,
        1,
        0,
        0,
        0,
        1.3182500000000001,
        1
      ],
      "name": "Cube"
    },
    {
      "mesh": 0,
      "name": "Cube_0"
    },
    {
      "children": [
        6
      ],
      "name": "Geode"
    },
    {
      "children": [
        10
      ],
      "matrix": [
        1,
        0,
        0,
        0,
        0,
        1,
        0,
        0,
        0,
        0,
        1,
        0,
        -0,
        -2.7763599999999999,
        -3.6673100000000005,
        1
      ],
      "name": "Cube.001"
    },
    {
      "mesh": 1,
      "name": "Cube.001_0"
    },
    {
      "children": [
        9
      ],
      "name": "Geode"
    },
    {
      "children": [
        13
      ],
      "matrix": [
        0.20495000000000002,
        0,
        0,
        0,
        0,
        0.20495000000000002,
        0,
        0,
        0,
        0,
        0.20495000000000002,
        0,
        -0,
        5.58371,
        1.7832500000000002,
        1
      ],
      "name": "Cylinder"
    },
    {
      "mesh": 2,
      "name": "Cylinder_0"
    },
    {
      "children": [
        12
      ],
      "name": "Geode"
    },
    {
      "children": [
        16
      ],
      "matrix": [
        1,
        0,
        0,
        0,
        0,
        0.98392999999999997,
        0.17854000000000003,
        0,
        0,
        -0.17854000000000003,
        0.98392999999999997,
        0,
        -0,
        -0.0088600000000000016,
        0.13216,
        1
      ],
      "name": "Cube.002"
    },
    {
      "mesh": 3,
      "name": "Cube.002_0"
    },
    {
      "children": [
        15
      ],
      "name": "Geode"
    }
  ],
  "scene": 0,
  "scenes": [
    {
      "name": "OSG_Scene",
      "nodes": [
        0
      ]
    }
  ]
}

