{
  "accessors": [
    {
      "bufferView": 2,
      "componentType": 5126,
      "count": 34,
      "max": [
        4.6044254302978516,
        -56.789249420166016,
        63.302265167236328
      ],
      "min": [
        -4.6044254302978516,
        -69.089096069335938,
        56.536209106445312
      ],
      "type": "VEC3"
    },
    {
      "bufferView": 2,
      "byteOffset": 408,
      "componentType": 5126,
      "count": 34,
      "max": [
        0.8060753345489502,
        0.90228039026260376,
        0.93384420871734619
      ],
      "min": [
        -0.8060753345489502,
        -0.99829620122909546,
        -0.98475843667984009
      ],
      "type": "VEC3"
    },
    {
      "bufferView": 0,
      "componentType": 5125,
      "count": 192,
      "max": [
        33
      ],
      "min": [
        0
      ],
      "type": "SCALAR"
    },
    {
      "bufferView": 2,
      "byteOffset": 816,
      "componentType": 5126,
      "count": 367,
      "max": [
        5.231102466583252,
        -49.397590637207031,
        83.477264404296875
      ],
      "min": [
        -11.22580623626709,
        -60.26031494140625,
        74.498725891113281
      ],
      "type": "VEC3"
    },
    {
      "bufferView": 2,
      "byteOffset": 5220,
      "componentType": 5126,
      "count": 367,
      "max": [
        0.84289795160293579,
        0.9975542426109314,
        0.99736142158508301
      ],
      "min": [
        -0.99446606636047363,
        -0.99929994344711304,
        -0.99708855152130127
      ],
      "type": "VEC3"
    },
    {
      "bufferView": 3,
      "componentType": 5126,
      "count": 367,
      "max": [
        1,
        0,
        0,
        -1
      ],
      "min": [
        1,
        0,
        0,
        -1
      ],
      "type": "VEC4"
    },
    {
      "bufferView": 1,
      "componentType": 5126,
      "count": 367,
      "max": [
        0,
        0
      ],
      "min": [
        0,
        0
      ],
      "type": "VEC2"
    },
    {
      "bufferView": 0,
      "byteOffset": 768,
      "componentType": 5125,
      "count": 2112,
      "max": [
        366
      ],
      "min": [
        0
      ],
      "type": "SCALAR"
    },
    {
      "bufferView": 2,
      "byteOffset": 9624,
      "componentType": 5126,
      "count": 6802,
      "max": [
        17.87568473815918,
        112.99056243896484,
        90.466934204101562
      ],
      "min": [
        -17.87568473815918,
        -73.544456481933594,
        -0.26932525634765625
      ],
      "type": "VEC3"
    },
    {
      "bufferView": 2,
      "byteOffset": 91248,
      "componentType": 5126,
      "count": 6802,
      "max": [
        0.99999082088470459,
        0.99988031387329102,
        0.99999773502349854
      ],
      "min": [
        -0.99999082088470459,
        -0.99905788898468018,
        -0.99999451637268066
      ],
      "type": "VEC3"
    },
    {
      "bufferView": 3,
      "byteOffset": 5872,
      "componentType": 5126,
      "count": 6802,
      "max": [
        1,
        0.99990659952163696,
        0.99997752904891968,
        1
      ],
      "min": [
        -0.99999380111694336,
        -0.99808257818222046,
        -0.999958336353302,
        -1
      ],
      "type": "VEC4"
    },
    {
      "bufferView": 1,
      "byteOffset": 2936,
      "componentType": 5126,
      "count": 6802,
      "max": [
        0.98960000276565552,
        0.9187999963760376
      ],
      "min": [
        0.024499999359250069,
        0.0057999999262392521
      ],
      "type": "VEC2"
    },
    {
      "bufferView": 0,
      "byteOffset": 9216,
      "componentType": 5125,
      "count": 33708,
      "max": [
        6801
      ],
      "min": [
        0
      ],
      "type": "SCALAR"
    },
    {
      "bufferView": 2,
      "byteOffset": 172872,
      "componentType": 5126,
      "count": 1312,
      "max": [
        5.5874104499816895,
        -59.103172302246094,
        63.815261840820312
      ],
      "min": [
        -5.5874104499816895,
        -70.902763366699219,
        55.824947357177734
      ],
      "type": "VEC3"
    },
    {
      "bufferView": 2,
      "byteOffset": 188616,
      "componentType": 5126,
      "count": 1312,
      "max": [
        0.99830144643783569,
        0.99758589267730713,
        0.99719327688217163
      ],
      "min": [
        -0.99830144643783569,
        -0.99880081415176392,
        -0.99343019723892212
      ],
      "type": "VEC3"
    },
    {
      "bufferView": 3,
      "byteOffset": 114704,
      "componentType": 5126,
      "count": 1312,
      "max": [
        1,
        0,
        0,
        -1
      ],
      "min": [
        1,
        0,
        0,
        -1
      ],
      "type": "VEC4"
    },
    {
      "bufferView": 0,
      "byteOffset": 144048,
      "componentType": 5125,
      "count": 6912,
      "max": [
        1311
      ],
      "min": [
        0
      ],
      "type": "SCALAR"
    },
    {
      "bufferView": 2,
      "byteOffset": 204360,
      "componentType": 5126,
      "count": 83,
      "max": [
        3.2197408676147461,
        -71.667304992675781,
        65.578987121582031
      ],
      "min": [
        -3.2197408676147461,
        -74.308326721191406,
        61.236320495605469
      ],
      "type": "VEC3"
    },
    {
      "bufferView": 2,
      "byteOffset": 205356,
      "componentType": 5126,
      "count": 83,
      "max": [
        0.85654723644256592,
        -0.27155610918998718,
        0.95594912767410278
      ],
      "min": [
        -0.85654723644256592,
        -0.99998271465301514,
        -0.66287076473236084
      ],
      "type": "VEC3"
    },
    {
      "bufferView": 3,
      "byteOffset": 135696,
      "componentType": 5126,
      "count": 83,
      "max": [
        1,
        0.7036634087562561,
        0.21543841063976288,
        1
      ],
      "min": [
        -0.99822080135345459,
        -0.16315139830112457,
        -0.93302345275878906,
        -1
      ],
      "type": "VEC4"
    },
    {
      "bufferView": 0,
      "byteOffset": 171696,
      "componentType": 5125,
      "count": 336,
      "max": [
        82
      ],
      "min": [
        0
      ],
      "type": "SCALAR"
    },
    {
      "bufferView": 2,
      "byteOffset": 206352,
      "componentType": 5126,
      "count": 352,
      "max": [
        8.8249835968017578,
        -53.248588562011719,
        71.5477294921875
      ],
      "min": [
        -8.8249835968017578,
        -61.534141540527344,
        68.127754211425781
      ],
      "type": "VEC3"
    },
    {
      "bufferView": 2,
      "byteOffset": 210576,
      "componentType": 5126,
      "count": 352,
      "max": [
        0.9611172080039978,
        0.055004868656396866,
        0.98135948181152344
      ],
      "min": [
        -0.9611172080039978,
        -0.99738174676895142,
        -0.99765002727508545
      ],
      "type": "VEC3"
    },
    {
      "bufferView": 3,
      "byteOffset": 137024,
      "componentType": 5126,
      "count": 352,
      "max": [
        0.99849355220794678,
        0.99269980192184448,
        0.96454256772994995,
        1
      ],
      "min": [
        -0.99849355220794678,
        -0.99939656257629395,
        -0.99826920032501221,
        -1
      ],
      "type": "VEC4"
    },
    {
      "bufferView": 0,
      "byteOffset": 173040,
      "componentType": 5125,
      "count": 804,
      "max": [
        351
      ],
      "min": [
        0
      ],
      "type": "SCALAR"
    },
    {
      "bufferView": 2,
      "byteOffset": 214800,
      "componentType": 5126,
      "count": 278,
      "max": [
        7.8645229339599609,
        -58.686393737792969,
        63.656635284423828
      ],
      "min": [
        -7.8645229339599609,
        -71.040000915527344,
        56.251541137695312
      ],
      "type": "VEC3"
    },
    {
      "bufferView": 2,
      "byteOffset": 218136,
      "componentType": 5126,
      "count": 278,
      "max": [
        0.49393060803413391,
        0.77932256460189819,
        0.95822107791900635
      ],
      "min": [
        -0.49392980337142944,
        -0.99941420555114746,
        -0.99711495637893677
      ],
      "type": "VEC3"
    },
    {
      "bufferView": 3,
      "byteOffset": 142656,
      "componentType": 5126,
      "count": 278,
      "max": [
        1,
        0.91769665479660034,
        0.68269896507263184,
        1
      ],
      "min": [
        -0.99993240833282471,
        -0.36986285448074341,
        -0.9954458475112915,
        -1
      ],
      "type": "VEC4"
    },
    {
      "bufferView": 0,
      "byteOffset": 176256,
      "componentType": 5125,
      "count": 1188,
      "max": [
        277
      ],
      "min": [
        0
      ],
      "type": "SCALAR"
    },
    {
      "bufferView": 2,
      "byteOffset": 221472,
      "componentType": 5126,
      "count": 2026,
      "max": [
        9.2168292999267578,
        -53.114952087402344,
        74.476463317871094
      ],
      "min": [
        -9.2168292999267578,
        -61.247062683105469,
        66.384445190429688
      ],
      "type": "VEC3"
    },
    {
      "bufferView": 2,
      "byteOffset": 245784,
      "componentType": 5126,
      "count": 2026,
      "max": [
        1,
        0.99995982646942139,
        0.99999380111694336
      ],
      "min": [
        -1,
        -0.96687221527099609,
        -0.99999332427978516
      ],
      "type": "VEC3"
    },
    {
      "bufferView": 3,
      "byteOffset": 147104,
      "componentType": 5126,
      "count": 2026,
      "max": [
        1,
        0,
        0,
        1
      ],
      "min": [
        1,
        0,
        0,
        -1
      ],
      "type": "VEC4"
    },
    {
      "bufferView": 0,
      "byteOffset": 181008,
      "componentType": 5125,
      "count": 11880,
      "max": [
        2025
      ],
      "min": [
        0
      ],
      "type": "SCALAR"
    },
    {
      "bufferView": 2,
      "byteOffset": 270096,
      "componentType": 5126,
      "count": 178,
      "max": [
        6.1661515235900879,
        -61.105949401855469,
        70.974899291992188
      ],
      "min": [
        -6.1661515235900879,
        -61.370903015136719,
        68.9708251953125
      ],
      "type": "VEC3"
    },
    {
      "bufferView": 2,
      "byteOffset": 272232,
      "componentType": 5126,
      "count": 178,
      "max": [
        0.25791561603546143,
        -0.92891591787338257,
        0.14734497666358948
      ],
      "min": [
        -0.25791561603546143,
        -0.99969518184661865,
        -0.37029063701629639
      ],
      "type": "VEC3"
    },
    {
      "bufferView": 3,
      "byteOffset": 179520,
      "componentType": 5126,
      "count": 178,
      "max": [
        1,
        0,
        0,
        -1
      ],
      "min": [
        1,
        0,
        0,
        -1
      ],
      "type": "VEC4"
    },
    {
      "bufferView": 0,
      "byteOffset": 228528,
      "componentType": 5125,
      "count": 792,
      "max": [
        177
      ],
      "min": [
        0
      ],
      "type": "SCALAR"
    },
    {
      "bufferView": 2,
      "byteOffset": 274368,
      "componentType": 5126,
      "count": 176,
      "max": [
        6.6022152900695801,
        -60.915794372558594,
        71.414161682128906
      ],
      "min": [
        -6.6022152900695801,
        -61.338890075683594,
        68.5643310546875
      ],
      "type": "VEC3"
    },
    {
      "bufferView": 2,
      "byteOffset": 276480,
      "componentType": 5126,
      "count": 176,
      "max": [
        0.36592286825180054,
        -0.88254213333129883,
        0.25526085495948792
      ],
      "min": [
        -0.36592286825180054,
        -0.98991310596466064,
        -0.47023341059684753
      ],
      "type": "VEC3"
    },
    {
      "bufferView": 3,
      "byteOffset": 182368,
      "componentType": 5126,
      "count": 176,
      "max": [
        1,
        0,
        0,
        -1
      ],
      "min": [
        1,
        0,
        0,
        -1
      ],
      "type": "VEC4"
    },
    {
      "bufferView": 0,
      "byteOffset": 231696,
      "componentType": 5125,
      "count": 528,
      "max": [
        175
      ],
      "min": [
        0
      ],
      "type": "SCALAR"
    }
  ],
  "asset": {
    "generator": "Sketchfab (OSG glTF plugin)",
    "version": "2.0"
  },
  "bufferViews": [
    {
      "buffer": 0,
      "byteLength": 233808,
      "byteOffset": 0,
      "name": "floatBufferViews",
      "target": 34963
    },
    {
      "buffer": 0,
      "byteLength": 57352,
      "byteOffset": 233808,
      "byteStride": 8,
      "name": "floatBufferViews",
      "target": 34962
    },
    {
      "buffer": 0,
      "byteLength": 278592,
      "byteOffset": 291160,
      "byteStride": 12,
      "name": "floatBufferViews",
      "target": 34962
    },
    {
      "buffer": 0,
      "byteLength": 185184,
      "byteOffset": 569752,
      "byteStride": 16,
      "name": "floatBufferViews",
      "target": 34962
    }
  ],
  "buffers": [
    {
      "byteLength": 754936,
      "uri": "scene.bin"
    }
  ],
  "images": [
    {
      "uri": "textures/tongue_baseColor.jpeg"
    },
    {
      "uri": "textures/Material.006_baseColor.jpeg"
    }
  ],
  "materials": [
    {
      "doubleSided": true,
      "emissiveFactor": [
        0,
        0,
        0
      ],
      "name": "tongue",
      "pbrMetallicRoughness": {
        "baseColorFactor": [
          1,
          1,
          1,
          1
        ],
        "baseColorTexture": {
          "index": 0,
          "texCoord": 0
        },
        "metallicFactor": 0,
        "roughnessFactor": 0.95770514949999996
      }
    },
    {
      "doubleSided": true,
      "emissiveFactor": [
        0,
        0,
        0
      ],
      "name": "Material.006",
      "pbrMetallicRoughness": {
        "baseColorFactor": [
          1,
          1,
          1,
          1
        ],
        "baseColorTexture": {
          "index": 1,
          "texCoord": 0
        },
        "metallicFactor": 0,
        "roughnessFactor": 1
      }
    },
    {
      "doubleSided": true,
      "emissiveFactor": [
        0,
        0,
        0
      ],
      "name": "Teeth.002",
      "pbrMetallicRoughness": {
        "baseColorFactor": [
          1,
          1,
          1,
          1
        ],
        "metallicFactor": 0,
        "roughnessFactor": 0.91242345039999995
      }
    },
    {
      "doubleSided": true,
      "emissiveFactor": [
        0,
        0,
        0
      ],
      "name": "Nose.002",
      "pbrMetallicRoughness": {
        "baseColorFactor": [
          0.0080759999999999998,
          0.0080759999999999998,
          0.0080759999999999998,
          1
        ],
        "metallicFactor": 0,
        "roughnessFactor": 0.98142221330000001
      }
    },
    {
      "doubleSided": true,
      "emissiveFactor": [
        0,
        0,
        0
      ],
      "name": "Black.001",
      "pbrMetallicRoughness": {
        "baseColorFactor": [
          0.004241,
          0.004241,
          0.004241,
          1
        ],
        "metallicFactor": 0,
        "roughnessFactor": 1
      }
    },
    {
      "doubleSided": true,
      "emissiveFactor": [
        0,
        0,
        0
      ],
      "name": "mouth",
      "pbrMetallicRoughness": {
        "baseColorFactor": [
          0.057795100000000002,
          0.0078162200000000005,
          0,
          1
        ],
        "metallicFactor": 0,
        "roughnessFactor": 1
      }
    },
    {
      "doubleSided": true,
      "emissiveFactor": [
        0,
        0,
        0
      ],
      "name": "Eye1.002",
      "pbrMetallicRoughness": {
        "baseColorFactor": [
          0.80000000000000004,
          0.80000000000000004,
          0.80000000000000004,
          1
        ],
        "metallicFactor": 0,
        "roughnessFactor": 0.91242345039999995
      }
    },
    {
      "doubleSided": true,
      "emissiveFactor": [
        0,
        0,
        0
      ],
      "name": "Eye3.002",
      "pbrMetallicRoughness": {
        "baseColorFactor": [
          0.009018,
          0.009018,
          0.009018,
          1
        ],
        "metallicFactor": 0,
        "roughnessFactor": 0.91242345039999995
      }
    },
    {
      "doubleSided": true,
      "emissiveFactor": [
        0,
        0,
        0
      ],
      "name": "Eye2.002",
      "pbrMetallicRoughness": {
        "baseColorFactor": [
          0.087131200000000006,
          0.0117369,
          0,
          1
        ],
        "metallicFactor": 0,
        "roughnessFactor": 0.91242345039999995
      }
    }
  ],
  "meshes": [
    {
      "name": "tongue_tongue_0",
      "primitives": [
        {
          "attributes": {
            "NORMAL": 1,
            "POSITION": 0
          },
          "indices": 2,
          "material": 0,
          "mode": 4
        }
      ]
    },
    {
      "name": "bang_Material.006_0",
      "primitives": [
        {
          "attributes": {
            "NORMAL": 4,
            "POSITION": 3,
            "TANGENT": 5,
            "TEXCOORD_0": 6
          },
          "indices": 7,
          "material": 1,
          "mode": 4
        }
      ]
    },
    {
      "name": "Dog_Material.006_0",
      "primitives": [
        {
          "attributes": {
            "NORMAL": 9,
            "POSITION": 8,
            "TANGENT": 10,
            "TEXCOORD_0": 11
          },
          "indices": 12,
          "material": 1,
          "mode": 4
        }
      ]
    },
    {
      "name": "Dog_Teeth.002_0",
      "primitives": [
        {
          "attributes": {
            "NORMAL": 14,
            "POSITION": 13,
            "TANGENT": 15
          },
          "indices": 16,
          "material": 2,
          "mode": 4
        }
      ]
    },
    {
      "name": "Dog_Nose.002_0",
      "primitives": [
        {
          "attributes": {
            "NORMAL": 18,
            "POSITION": 17,
            "TANGENT": 19
          },
          "indices": 20,
          "material": 3,
          "mode": 4
        }
      ]
    },
    {
      "name": "Dog_Black.001_0",
      "primitives": [
        {
          "attributes": {
            "NORMAL": 22,
            "POSITION": 21,
            "TANGENT": 23
          },
          "indices": 24,
          "material": 4,
          "mode": 4
        }
      ]
    },
    {
      "name": "Dog_mouth_0",
      "primitives": [
        {
          "attributes": {
            "NORMAL": 26,
            "POSITION": 25,
            "TANGENT": 27
          },
          "indices": 28,
          "material": 5,
          "mode": 4
        }
      ]
    },
    {
      "name": "Dog_Eye1.002_0",
      "primitives": [
        {
          "attributes": {
            "NORMAL": 30,
            "POSITION": 29,
            "TANGENT": 31
          },
          "indices": 32,
          "material": 6,
          "mode": 4
        }
      ]
    },
    {
      "name": "Dog_Eye3.002_0",
      "primitives": [
        {
          "attributes": {
            "NORMAL": 34,
            "POSITION": 33,
            "TANGENT": 35
          },
          "indices": 36,
          "material": 7,
          "mode": 4
        }
      ]
    },
    {
      "name": "Dog_Eye2.002_0",
      "primitives": [
        {
          "attributes": {
            "NORMAL": 38,
            "POSITION": 37,
            "TANGENT": 39
          },
          "indices": 40,
          "material": 8,
          "mode": 4
        }
      ]
    }
  ],
  "nodes": [
    {
      "children": [
        1
      ],
      "name": "RootNode (gltf orientation matrix)",
      "rotation": [
        -0.70710678118654746,
        -0,
        -0,
        0.70710678118654757
      ]
    },
    {
      "children": [
        2
      ],
      "name": "RootNode (model correction matrix)"
    },
    {
      "children": [
        3
      ],
      "matrix": [
        1,
        0,
        0,
        0,
        0,
        0,
        1,
        0,
        0,
        -1,
        0,
        0,
        0,
        0,
        0,
        1
      ],
      "name": "FoxDis4.fbx"
    },
    {
      "children": [
        4,
        7,
        10
      ],
      "name": "RootNode"
    },
    {
      "children": [
        6
      ],
      "matrix": [
        1,
        0,
        0,
        0,
        0,
        -1.6292067939183141e-07,
        -0.99999999999998679,
        0,
        0,
        0.99999999999998679,
        -1.6292067939183141e-07,
        0,
        0,
        0,
        0,
        1
      ],
      "name": "tongue"
    },
    {
      "mesh": 0,
      "name": "tongue_tongue_0"
    },
    {
      "children": [
        5
      ],
      "name": "Geode"
    },
    {
      "children": [
        9
      ],
      "matrix": [
        1,
        0,
        0,
        0,
        0,
        -1.6292067939183141e-07,
        -0.99999999999998679,
        0,
        0,
        0.99999999999998679,
        -1.6292067939183141e-07,
        0,
        0,
        0,
        0,
        1
      ],
      "name": "bang"
    },
    {
      "mesh": 1,
      "name": "bang_Material.006_0"
    },
    {
      "children": [
        8
      ],
      "name": "Geode"
    },
    {
      "children": [
        19
      ],
      "matrix": [
        1,
        0,
        0,
        0,
        0,
        -1.6292067939183141e-07,
        -0.99999999999998679,
        0,
        0,
        0.99999999999998679,
        -1.6292067939183141e-07,
        0,
        0,
        0,
        0,
        1
      ],
      "name": "Dog"
    },
    {
      "mesh": 2,
      "name": "Dog_Material.006_0"
    },
    {
      "mesh": 3,
      "name": "Dog_Teeth.002_0"
    },
    {
      "mesh": 4,
      "name": "Dog_Nose.002_0"
    },
    {
      "mesh": 5,
      "name": "Dog_Black.001_0"
    },
    {
      "mesh": 6,
      "name": "Dog_mouth_0"
    },
    {
      "mesh": 7,
      "name": "Dog_Eye1.002_0"
    },
    {
      "mesh": 8,
      "name": "Dog_Eye3.002_0"
    },
    {
      "mesh": 9,
      "name": "Dog_Eye2.002_0"
    },
    {
      "children": [
        11,
        12,
        13,
        14,
        15,
        16,
        17,
        18
      ],
      "name": "Geode"
    }
  ],
  "samplers": [
    {
      "magFilter": 9729,
      "minFilter": 9987,
      "wrapS": 10497,
      "wrapT": 10497
    }
  ],
  "scene": 0,
  "scenes": [
    {
      "name": "OSG_Scene",
      "nodes": [
        0
      ]
    }
  ],
  "textures": [
    {
      "sampler": 0,
      "source": 0
    },
    {
      "sampler": 0,
      "source": 1
    }
  ]
}

