{
  "accessors": [
    {
      "bufferView": 2,
      "componentType": 5126,
      "count": 623,
      "max": [
        6.4000000953674316,
        6.4000000953674316,
        6.4000000953674316
      ],
      "min": [
        -6.4000000953674316,
        -6.4000000953674316,
        -6.4000000953674316
      ],
      "type": "VEC3"
    },
    {
      "bufferView": 2,
      "byteOffset": 7476,
      "componentType": 5126,
      "count": 623,
      "max": [
        1,
        1,
        1
      ],
      "min": [
        -1,
        -1,
        -1
      ],
      "type": "VEC3"
    },
    {
      "bufferView": 3,
      "componentType": 5126,
      "count": 623,
      "max": [
        1,
        1,
        0.065547779202461243,
        1
      ],
      "min": [
        -1,
        -1,
        -0.065541118383407593,
        1
      ],
      "type": "VEC4"
    },
    {
      "bufferView": 1,
      "componentType": 5126,
      "count": 623,
      "max": [
        1,
        1
      ],
      "min": [
        0,
        0
      ],
      "type": "VEC2"
    },
    {
      "bufferView": 0,
      "componentType": 5125,
      "count": 3312,
      "max": [
        622
      ],
      "min": [
        0
      ],
      "type": "SCALAR"
    },
    {
      "bufferView": 2,
      "byteOffset": 14952,
      "componentType": 5126,
      "count": 623,
      "max": [
        6.4499998092651367,
        6.4499998092651367,
        6.4499998092651367
      ],
      "min": [
        -6.4499998092651367,
        -6.4499998092651367,
        -6.4499998092651367
      ],
      "type": "VEC3"
    },
    {
      "bufferView": 2,
      "byteOffset": 22428,
      "componentType": 5126,
      "count": 623,
      "max": [
        1,
        1,
        1
      ],
      "min": [
        -1,
        -1,
        -1
      ],
      "type": "VEC3"
    },
    {
      "bufferView": 3,
      "byteOffset": 9968,
      "componentType": 5126,
      "count": 623,
      "max": [
        1,
        1,
        0.065542668104171753,
        1
      ],
      "min": [
        -1,
        -1,
        -0.065534330904483795,
        1
      ],
      "type": "VEC4"
    },
    {
      "bufferView": 1,
      "byteOffset": 4984,
      "componentType": 5126,
      "count": 623,
      "max": [
        1,
        1
      ],
      "min": [
        0,
        0
      ],
      "type": "VEC2"
    },
    {
      "bufferView": 0,
      "byteOffset": 13248,
      "componentType": 5125,
      "count": 3312,
      "max": [
        622
      ],
      "min": [
        0
      ],
      "type": "SCALAR"
    }
  ],
  "asset": {
    "generator": "Sketchfab (OSG glTF plugin)",
    "version": "2.0"
  },
  "bufferViews": [
    {
      "buffer": 0,
      "byteLength": 26496,
      "byteOffset": 0,
      "name": "floatBufferViews",
      "target": 34963
    },
    {
      "buffer": 0,
      "byteLength": 9968,
      "byteOffset": 26496,
      "byteStride": 8,
      "name": "floatBufferViews",
      "target": 34962
    },
    {
      "buffer": 0,
      "byteLength": 29904,
      "byteOffset": 36464,
      "byteStride": 12,
      "name": "floatBufferViews",
      "target": 34962
    },
    {
      "buffer": 0,
      "byteLength": 19936,
      "byteOffset": 66368,
      "byteStride": 16,
      "name": "floatBufferViews",
      "target": 34962
    }
  ],
  "buffers": [
    {
      "byteLength": 86304,
      "uri": "scene.bin"
    }
  ],
  "extensionsRequired": [
    "KHR_materials_pbrSpecularGlossiness"
  ],
  "extensionsUsed": [
    "KHR_materials_pbrSpecularGlossiness"
  ],
  "images": [
    {
      "uri": "textures/Physical_diffuse.png"
    },
    {
      "uri": "textures/Physical3_diffuse.png"
    }
  ],
  "materials": [
    {
      "alphaMode": "BLEND",
      "doubleSided": true,
      "emissiveFactor": [
        0,
        0,
        0
      ],
      "extensions": {
        "KHR_materials_pbrSpecularGlossiness": {
          "diffuseFactor": [
            1,
            1,
            1,
            1
          ],
          "diffuseTexture": {
            "index": 1,
            "texCoord": 0
          },
          "glossinessFactor": 0,
          "specularFactor": [
            0.00117647055,
            0.00117647055,
            0.00117647055
          ]
        }
      },
      "name": "Physical3",
      "occlusionFactor": 1
    },
    {
      "doubleSided": true,
      "emissiveFactor": [
        0,
        0,
        0
      ],
      "extensions": {
        "KHR_materials_pbrSpecularGlossiness": {
          "diffuseFactor": [
            1,
            1,
            1,
            1
          ],
          "diffuseTexture": {
            "index": 0,
            "texCoord": 0
          },
          "glossinessFactor": 0,
          "specularFactor": [
            0.0120000001,
            0.0120000001,
            0.0120000001
          ]
        }
      },
      "name": "Physical",
      "occlusionFactor": 1
    }
  ],
  "meshes": [
    {
      "name": "Earth_0",
      "primitives": [
        {
          "attributes": {
            "NORMAL": 1,
            "POSITION": 0,
            "TANGENT": 2,
            "TEXCOORD_0": 3
          },
          "indices": 4,
          "material": 1,
          "mode": 4
        }
      ]
    },
    {
      "name": "Clouds_0",
      "primitives": [
        {
          "attributes": {
            "NORMAL": 6,
            "POSITION": 5,
            "TANGENT": 7,
            "TEXCOORD_0": 8
          },
          "indices": 9,
          "material": 0,
          "mode": 4
        }
      ]
    }
  ],
  "nodes": [
    {
      "children": [
        1
      ],
      "name": "RootNode (gltf orientation matrix)",
      "rotation": [
        -0.70710678118654746,
        -0,
        -0,
        0.70710678118654757
      ]
    },
    {
      "children": [
        2
      ],
      "name": "RootNode (model correction matrix)"
    },
    {
      "children": [
        3,
        5,
        8
      ],
      "name": "Root"
    },
    {
      "children": [
        4
      ],
      "matrix": [
        1,
        0,
        0,
        0,
        0,
        -0,
        1,
        0,
        0,
        -1,
        -0,
        0,
        20,
        0,
        0,
        1
      ],
      "name": "DirectionalLight"
    },
    {
      "name": "DirectionalLight"
    },
    {
      "children": [
        6
      ],
      "name": "Earth"
    },
    {
      "children": [
        7
      ],
      "name": "Geode"
    },
    {
      "mesh": 0,
      "name": "Earth_0"
    },
    {
      "children": [
        9
      ],
      "name": "Clouds"
    },
    {
      "children": [
        10
      ],
      "name": "Geode"
    },
    {
      "mesh": 1,
      "name": "Clouds_0"
    }
  ],
  "samplers": [
    {
      "magFilter": 9729,
      "minFilter": 9987,
      "wrapS": 10497,
      "wrapT": 10497
    }
  ],
  "scene": 0,
  "scenes": [
    {
      "name": "OSG_Scene",
      "nodes": [
        0
      ]
    }
  ],
  "textures": [
    {
      "sampler": 0,
      "source": 0
    },
    {
      "sampler": 0,
      "source": 1
    }
  ]
}

