{
  "accessors": [
    {
      "bufferView": 2,
      "componentType": 5126,
      "count": 790,
      "max": [
        0.46452701091766357,
        1.1496089696884155,
        3.4394359588623047
      ],
      "min": [
        -0.4643700122833252,
        -2.2133409976959229,
        -0.00015999999595806003
      ],
      "type": "VEC3"
    },
    {
      "bufferView": 2,
      "byteOffset": 9480,
      "componentType": 5126,
      "count": 790,
      "max": [
        0.9998508095741272,
        0.9976876974105835,
        0.9998818039894104
      ],
      "min": [
        -0.99802565574645996,
        -0.99135571718215942,
        -0.9993281364440918
      ],
      "type": "VEC3"
    },
    {
      "bufferView": 3,
      "componentType": 5126,
      "count": 790,
      "max": [
        0.99991977214813232,
        0.99593806266784668,
        0.9976876974105835,
        1
      ],
      "min": [
        -0.99991977214813232,
        -0.99988138675689697,
        -0.95368415117263794,
        -1
      ],
      "type": "VEC4"
    },
    {
      "bufferView": 1,
      "componentType": 5126,
      "count": 790,
      "max": [
        0.99172800779342651,
        0.9941440224647522
      ],
      "min": [
        0.0048799999058246613,
        0.013151999562978745
      ],
      "type": "VEC2"
    },
    {
      "bufferView": 0,
      "componentType": 5125,
      "count": 3558,
      "max": [
        789
      ],
      "min": [
        0
      ],
      "type": "SCALAR"
    },
    {
      "bufferView": 2,
      "byteOffset": 18960,
      "componentType": 5126,
      "count": 359,
      "max": [
        0.50714397430419922,
        -0.8462899923324585,
        4.0950498580932617
      ],
      "min": [
        -0.50714397430419922,
        -1.6128280162811279,
        3.1555159091949463
      ],
      "type": "VEC3"
    },
    {
      "bufferView": 2,
      "byteOffset": 23268,
      "componentType": 5126,
      "count": 359,
      "max": [
        0.99935555458068848,
        0.96820729970932007,
        0.96076244115829468
      ],
      "min": [
        -0.99935555458068848,
        -0.91208666563034058,
        -0.94577175378799438
      ],
      "type": "VEC3"
    },
    {
      "bufferView": 3,
      "byteOffset": 12640,
      "componentType": 5126,
      "count": 359,
      "max": [
        0.99480372667312622,
        0.99249523878097534,
        0.97527778148651123,
        1
      ],
      "min": [
        -0.99480372667312622,
        -0.98403972387313843,
        -0.99166721105575562,
        -1
      ],
      "type": "VEC4"
    },
    {
      "bufferView": 1,
      "byteOffset": 6320,
      "componentType": 5126,
      "count": 359,
      "max": [
        0.98001599311828613,
        0.99023997783660889
      ],
      "min": [
        0.12695999443531036,
        0.0097279995679855347
      ],
      "type": "VEC2"
    },
    {
      "bufferView": 0,
      "byteOffset": 14232,
      "componentType": 5125,
      "count": 1152,
      "max": [
        358
      ],
      "min": [
        0
      ],
      "type": "SCALAR"
    }
  ],
  "asset": {
    "generator": "Sketchfab (OSG glTF plugin)",
    "version": "2.0"
  },
  "bufferViews": [
    {
      "buffer": 0,
      "byteLength": 18840,
      "byteOffset": 0,
      "name": "floatBufferViews",
      "target": 34963
    },
    {
      "buffer": 0,
      "byteLength": 9192,
      "byteOffset": 18840,
      "byteStride": 8,
      "name": "floatBufferViews",
      "target": 34962
    },
    {
      "buffer": 0,
      "byteLength": 27576,
      "byteOffset": 28032,
      "byteStride": 12,
      "name": "floatBufferViews",
      "target": 34962
    },
    {
      "buffer": 0,
      "byteLength": 18384,
      "byteOffset": 55608,
      "byteStride": 16,
      "name": "floatBufferViews",
      "target": 34962
    }
  ],
  "buffers": [
    {
      "byteLength": 73992,
      "uri": "scene.bin"
    }
  ],
  "images": [
    {
      "uri": "textures/Deer_horns_baseColor.png"
    },
    {
      "uri": "textures/Deer_horns_metallicRoughness.png"
    },
    {
      "uri": "textures/Deer_body_baseColor.png"
    },
    {
      "uri": "textures/Deer_body_metallicRoughness.png"
    }
  ],
  "materials": [
    {
      "doubleSided": true,
      "emissiveFactor": [
        0,
        0,
        0
      ],
      "name": "Deer_body",
      "pbrMetallicRoughness": {
        "baseColorFactor": [
          1,
          1,
          1,
          1
        ],
        "baseColorTexture": {
          "index": 2,
          "texCoord": 0
        },
        "metallicFactor": 1,
        "metallicRoughnessTexture": {
          "index": 3,
          "texCoord": 0
        },
        "roughnessFactor": 1
      }
    },
    {
      "doubleSided": true,
      "emissiveFactor": [
        0,
        0,
        0
      ],
      "name": "Deer_horns",
      "pbrMetallicRoughness": {
        "baseColorFactor": [
          1,
          1,
          1,
          1
        ],
        "baseColorTexture": {
          "index": 0,
          "texCoord": 0
        },
        "metallicFactor": 1,
        "metallicRoughnessTexture": {
          "index": 1,
          "texCoord": 0
        },
        "roughnessFactor": 1
      }
    }
  ],
  "meshes": [
    {
      "primitives": [
        {
          "attributes": {
            "NORMAL": 1,
            "POSITION": 0,
            "TANGENT": 2,
            "TEXCOORD_0": 3
          },
          "indices": 4,
          "material": 0,
          "mode": 4
        }
      ]
    },
    {
      "primitives": [
        {
          "attributes": {
            "NORMAL": 6,
            "POSITION": 5,
            "TANGENT": 7,
            "TEXCOORD_0": 8
          },
          "indices": 9,
          "material": 1,
          "mode": 4
        }
      ]
    }
  ],
  "nodes": [
    {
      "children": [
        1
      ],
      "name": "RootNode (gltf orientation matrix)",
      "rotation": [
        -0.70710678118654746,
        -0,
        -0,
        0.70710678118654757
      ]
    },
    {
      "children": [
        2
      ],
      "name": "RootNode (model correction matrix)"
    },
    {
      "children": [
        5
      ],
      "name": "Deer.obj.cleaner.materialmerger.gles"
    },
    {
      "mesh": 0,
      "name": ""
    },
    {
      "mesh": 1,
      "name": ""
    },
    {
      "children": [
        3,
        4
      ],
      "name": "Geode"
    }
  ],
  "samplers": [
    {
      "magFilter": 9729,
      "minFilter": 9987,
      "wrapS": 10497,
      "wrapT": 10497
    }
  ],
  "scene": 0,
  "scenes": [
    {
      "name": "OSG_Scene",
      "nodes": [
        0
      ]
    }
  ],
  "textures": [
    {
      "sampler": 0,
      "source": 0
    },
    {
      "sampler": 0,
      "source": 1
    },
    {
      "sampler": 0,
      "source": 2
    },
    {
      "sampler": 0,
      "source": 3
    }
  ]
}

