{
  "accessors": [
    {
      "bufferView": 2,
      "componentType": 5126,
      "count": 5147,
      "max": [
        29.985435485839844,
        47.191951751708984,
        14.262054443359375
      ],
      "min": [
        -29.722539901733398,
        -36.496452331542969,
        -6.2846536636352539
      ],
      "type": "VEC3"
    },
    {
      "bufferView": 2,
      "byteOffset": 61764,
      "componentType": 5126,
      "count": 5147,
      "max": [
        1,
        1,
        1
      ],
      "min": [
        -1,
        -1,
        -1
      ],
      "type": "VEC3"
    },
    {
      "bufferView": 3,
      "componentType": 5126,
      "count": 5147,
      "max": [
        1,
        1,
        1,
        1
      ],
      "min": [
        -1,
        -1,
        -0.99999868869781494,
        -1
      ],
      "type": "VEC4"
    },
    {
      "bufferView": 3,
      "byteOffset": 82352,
      "componentType": 5126,
      "count": 5147,
      "max": [
        1,
        1,
        1,
        1
      ],
      "min": [
        0,
        0,
        0,
        0
      ],
      "type": "VEC4"
    },
    {
      "bufferView": 1,
      "componentType": 5126,
      "count": 5147,
      "max": [
        14.495157241821289,
        33.088817596435547
      ],
      "min": [
        -17.892721176147461,
        0.059915035963058472
      ],
      "type": "VEC2"
    },
    {
      "bufferView": 0,
      "componentType": 5125,
      "count": 21210,
      "max": [
        5146
      ],
      "min": [
        0
      ],
      "type": "SCALAR"
    }
  ],
  "asset": {
    "generator": "Sketchfab (OSG glTF plugin)",
    "version": "2.0"
  },
  "bufferViews": [
    {
      "buffer": 0,
      "byteLength": 84840,
      "byteOffset": 0,
      "name": "floatBufferViews",
      "target": 34963
    },
    {
      "buffer": 0,
      "byteLength": 41176,
      "byteOffset": 84840,
      "byteStride": 8,
      "name": "floatBufferViews",
      "target": 34962
    },
    {
      "buffer": 0,
      "byteLength": 123528,
      "byteOffset": 126016,
      "byteStride": 12,
      "name": "floatBufferViews",
      "target": 34962
    },
    {
      "buffer": 0,
      "byteLength": 164704,
      "byteOffset": 249544,
      "byteStride": 16,
      "name": "floatBufferViews",
      "target": 34962
    }
  ],
  "buffers": [
    {
      "byteLength": 414248,
      "uri": "scene.bin"
    }
  ],
  "images": [
    {
      "uri": "textures/15%20-%20Default_baseColor.png"
    },
    {
      "uri": "textures/15%20-%20Default_normal.png"
    },
    {
      "uri": "textures/15%20-%20Default_metallicRoughness.png"
    }
  ],
  "materials": [
    {
      "alphaCutoff": 0.5,
      "alphaMode": "BLEND",
      "doubleSided": true,
      "emissiveFactor": [
        0,
        0,
        0
      ],
      "name": "15 - Default",
      "normalTexture": {
        "index": 1,
        "scale": 0.70927085879999996,
        "texCoord": 0
      },
      "pbrMetallicRoughness": {
        "baseColorFactor": [
          1,
          1,
          1,
          1
        ],
        "baseColorTexture": {
          "index": 0,
          "texCoord": 0
        },
        "metallicFactor": 1,
        "metallicRoughnessTexture": {
          "index": 2,
          "texCoord": 0
        },
        "roughnessFactor": 1
      }
    }
  ],
  "meshes": [
    {
      "name": "Box004_15 - Default_0",
      "primitives": [
        {
          "attributes": {
            "COLOR_0": 3,
            "NORMAL": 1,
            "POSITION": 0,
            "TANGENT": 2,
            "TEXCOORD_0": 4
          },
          "indices": 5,
          "material": 0,
          "mode": 4
        }
      ]
    }
  ],
  "nodes": [
    {
      "children": [
        1
      ],
      "name": "RootNode (gltf orientation matrix)",
      "rotation": [
        -0.70710678118654746,
        -0,
        -0,
        0.70710678118654757
      ]
    },
    {
      "children": [
        2
      ],
      "matrix": [
        1,
        0,
        0,
        0,
        0,
        0.98570072650909424,
        -0.16850537061691284,
        0,
        0,
        0.16850537061691284,
        0.98570072650909424,
        0,
        0,
        -3.0365185737609863,
        -0.99998438358306885,
        1
      ],
      "name": "RootNode (model correction matrix)"
    },
    {
      "children": [
        3
      ],
      "matrix": [
        1,
        0,
        0,
        0,
        0,
        0,
        1,
        0,
        0,
        -1,
        0,
        0,
        0,
        0,
        0,
        1
      ],
      "name": "7a292a2b72694188ab03ab2eb5f75fd7.fbx"
    },
    {
      "children": [
        4
      ],
      "name": "RootNode"
    },
    {
      "children": [
        6
      ],
      "matrix": [
        1.4853911399841309,
        0,
        0,
        0,
        0,
        2.2204460492503131e-16,
        -1,
        0,
        0,
        1.4853911399841309,
        3.2982308883691821e-16,
        0,
        -1.9754905700683594,
        11.466747283935547,
        12.757923126220703,
        1
      ],
      "name": "Box004"
    },
    {
      "mesh": 0,
      "name": "Box004_15 - Default_0"
    },
    {
      "children": [
        5
      ],
      "name": "Geode"
    }
  ],
  "samplers": [
    {
      "magFilter": 9729,
      "minFilter": 9987,
      "wrapS": 10497,
      "wrapT": 10497
    }
  ],
  "scene": 0,
  "scenes": [
    {
      "name": "OSG_Scene",
      "nodes": [
        0
      ]
    }
  ],
  "textures": [
    {
      "sampler": 0,
      "source": 0
    },
    {
      "sampler": 0,
      "source": 1
    },
    {
      "sampler": 0,
      "source": 2
    }
  ]
}

